<mxfile host="app.diagrams.net" agent="Mozilla/5.0 (X11; Linux x86_64; rv:142.0) Gecko/20100101 Firefox/142.0" version="28.1.2">
  <diagram name="Page-1" id="6nOPbkxU7P4LrO_OreUy">
    <mxGraphModel dx="-2147" dy="-185" grid="1" gridSize="10" guides="1" tooltips="1" connect="1" arrows="1" fold="1" page="1" pageScale="1" pageWidth="850" pageHeight="1100" math="0" shadow="0">
      <root>
        <mxCell id="0" />
        <mxCell id="1" parent="0" />
        <mxCell id="Givdjkf4dNmUv_JA0HGD-4" value="" style="rounded=0;whiteSpace=wrap;html=1;" vertex="1" parent="1">
          <mxGeometry x="3596.92" y="1520" width="963.08" height="340" as="geometry" />
        </mxCell>
        <mxCell id="Givdjkf4dNmUv_JA0HGD-1" value="" style="shape=image;verticalLabelPosition=bottom;labelBackgroundColor=default;verticalAlign=top;aspect=fixed;imageAspect=0;image=data:image/png,iVBORw0KGgoAAAANSUhEUgAADwAAAAhwAgMAAADt0CPhAAAABGdBTUEAALGPC/xhBQAAAAFzUkdCAK7OHOkAAAAMUExURUdwTACS5gCS5gCS5lSvOdQAAAADdFJOUwCnPtpR81sAACAASURBVHja7N09bhtXFAZQD1kQDgsvYUojlZcgLyFN6nAnw124TZ1NjJcwRRC41BJcGIYL0S+JAEu0xJ/3RjJ4b3JOT7zh8H385g4p6sULAAAAAAAAAAAAAAAAAAAAAAAAAAAAAAAAAAAAAAAAAAAAAAAAAAAAAAAAAAAAAAAAAAAAAAAAAAAAAAAAAAAAAAAAAAAAAAAAAIB9i3el0p9OFkTzulTbOFsQzFAf4E/OFsTS1ee37JwuiGXVEODy1vmCUPqWAE/OF4QytgT4i/MFobTkt9w4XxDJoinA7mJBKF1TgIsTBpEs2wK8dcYgkHVbgN86YxDISoBBgAEBBn5ggN87Y6CBAQEGARZgMAMDGhgQYBBgAQYzMKCBAQEGAQbMwIAGBgEWYBBgwAwMaGAQYAEGAQbMwIAGBgEGBBgwA4MAa2AQYECAATMwCLAGBgEGBBgwA4MGBgQYEGAQYDMwaGBAgAEBBjMwoIEBAQYBFmAwAwMaGBBgEGABBjMwoIEBAQYBBszAgAYGARZgEGDADAxoYBBgAQYBBszAgAYGAQYEGDADgwBrYBBgQIABMzAIsAYGAQYEGDADgwYGBBgQYBBgMzBoYECAAQEGMzCggQEBBgEWYDADAxoYEGAQYAEGMzCggQEBBgEGzMCABgYBFmAQYMAMDGhgEGABBgEGzMCABgYBBgQYMAODAGtgEGBAgAEzMAiwBgYBBgQYBNgMDBoYEGBAgEGAzcCggQEBBgQYzMCABgYEGARYgMEMDGhgQIBBgAUYzMCABgYEGAQYMAMDGhgEWIBBgAEzMKCBQYAFGAQYMAMDGhhyWwsw5LUUYMirawvw1hmDtAHeOWEQigBDYkNLgG+cLwilbwnwF+cLQmn6IHhyviCUlz5FgrwWg3tY8L8Ygj84WxBMV13Bu62zBdH8/GuljXMFAAAAAAAAAAAAAAAAAAAAAAAAAAAAAAAAAAAAAADAD/HTH5UePK72Yb9/96jFzNWAQ14OpdJf3z3uXe3Ddpv9/P5W+7DPXho4ry/V9pPY1T9sP4qv560GHNQQxPJpXu7L2/uHDfNWAw5aNQRx92JWEst0f73e8KjixYFnvILer9KW4t7r0tW81YDDWpp0r0qbkrib93YxeXXgtEVLosrHu8e9KbMuhodSDMHwbJouhfci1VSl9xfDTY/66uWB05ZNkbq5e9zY9Lj3s94udl4eOG01M1JN18J302xbgN2GhlABbuv7svX6wEmvZnZimXXza12Kz5Ega4BXAgzP6c28i9q2T5/KFwGGAA281cCggQUY/vMN/N7rAxoYNLAZGDSwAIMZGNDAoIHNwKCBBRjMwKCBNTBoYDMwaGDADAwaWAODBhZg0MCggc3AoIE1MGhgAQYNDBrYDAwaWAODGRjQwKCBzcCggTUwmIFBA2tg0MDZZuCtTYAGTtvA3WQToIHTzsDrzzYBGjhtA78qG7sADZx1Bu7LJ7sADZy1gUc3u9HAaWfgf9+JPtgGaOCcDdz9s8xuax+ggVPOwLdHNNkHaOCUDXz7/L/aB2jglDNwf7vQxkZAA2ds4OF2IZ8koYEzzsALfzaBBs7bwN2DAwQNnGgG/nZAPklCAyds4LunP9kKaOB0M/DVt6X8TRIaOF8DD379Aw2cdgbeex/yhWg0cLYGXt6vtbMX0MDJZuD949nYDGjgXA3c7y3m21ho4GQz8Li3mI+C0cDJGnjYX+0XuwENnGkG7r5bzTU0GjhVA6+PvDuBBk4wAz84nMl2QAMnauAHT941NBo40wx8VVxDo4HTNvBQXEOjgbPOwI/ehVxDo4HzNHD3cD3f5UAD55mBHx/NtQ2BBs7SwI/fvFxDo4HTzMD9owX9TSEaOE0Dj49X3NgRaOAkM/Bw/J0GNHDwBu4OrOgaGg2cZAZeXui/uYAGfgYHD2ayJdDAKWbgg+9dfh8aDZyjgftDS/oyFho4xww8Hlzz2p5AA2do4OHgmr6MhQbOMAN3h9f0QRIaOEMDd5f6KUwwAz/dsWOZbAo0cPwGPvbWZQhGAyeYgftiCEYDp23g8diqG7sCDRx+Bh6Oreo/BaOBwzfw8Wfg25Ro4PAzcFfxJEEDB23g9fFlr20LNHDwGXh1/u0GNHDUBj7xxL/aFmjg4DNwXwzBaOC0DTwWQzAaOO0MPBRDMBo4awOffAKGYDRw7Bm4O7Wu39VBA8du4PXJhTc2Bho48gx8+kgmGwMNHLmBTz/vGxsDDRx5Bu5PLuxvgtHAoRt4vOTvYYIZ+GmGYghGA6dt4DMr+2EsNHDgGbg7s7IhGA0cuIGXF/01HzADP8nZA7m2NdDAYRt4VXvEoIHjzcBn37d8lQMNHLeB++IuFho47Qw8Fnex0MBpG3g4u/Zkb6CBo87A59f2VQ40cNQG7s6v7Vc50MBRZ+Bly1MFDRwrwOsL/6IemIGfoOY43MVCAwdt4Jpn7S4WGjjoDNwXd7HQwGkb+Kq4i4UGTjsDj8VdLDRw2gYeirtYaOCsM/Ci6V0HNHCoAHdVq7uLhQYOOQMvq1b3F4Vo4JANvL7wCA5m4CeoPIxr2wMNHLCBXxV3sdDAaWfgvm55X6ZEA0ds4MoAu4uFBo44A4+tzxY0cJwADxe+hAcz8BPUrj/ZH2jgcA28aD1s0MBxAtzVru/LlGjgeA28rF3fbWg0cLwZeN3+dEEDR2ng+qO4tkHQwNFm4PrnPNkgaOBoDfym+bhBA4eZgfvqA/BfgtHA4Rr4qvoA3IZGA4ebgccZzxc0cJAA/83eHePGcWRxGNfMYEFQEzB0yMgQvMkcgXMEJ4KNBQwq2mAvsOHMJQRhN5ESLSxfYniECWxB4RyBASkoMNnrNQyTXJtS11NVsYr8faHXsy013r+/elWv26s7X8QDeuAwCX+CrQoBA7dl4GngDw4wcCMBniT8CXyUA/cywD0beJbwJ/A6A+5VgCN9ZGs98Dz0FwZaZK9qgOctGHjv7v8IwJ0E+GqwYZX0u21g9VrsFDbpr7xTImiZWZUA7wL7R8XWr4vIowdokrRIXc0Gb0LN7DT4uMjKYWT7DWiStEidxVJw1UkmifuygQA7R0LbrCKbUakDIDFxFwrPUQOrAOAufLSL7QRdxq5WqP/cNNCHA3expbOM9c5nsdzvGlhzOEdC28yD68lVSKUpub9YtxDgnRJB07tYq9iWbMpieB1Kz/sWtu2cI+H+NMHXl5P7sc2oJ+N/9nWZv2/iWbRzJLTNZLQU39743cvRS+FnIeGfP2oiwM6R0Dh//dc4/n2zJ52+Gfm772/87PF//j6OQh1w6jin95GAlkh8ocJBMNASie9f+a4d0HOAl24Z0A6JnzBwEAy0ROJn/BwEAy1xODgIBh5MgB0EAw1xNDgIBrplMzgIBh5MgB0EAw2xGhwEAw8nwDv3DGiG1Pw6CAbaYZoc4FM3DWiFSXKAHQQDHQf4ZzcN6DfAJjmAZpglB9gkB9AM8+QAm+QAmmEvPcBLdw3oN8An7hrQb4C37hrQCAcCDPTLIj3AvskBtMLhYBQLeEgBNooFdBxgkxxAKxwJMPCgAmwUC2iFzWAUC3hQAT5x21CDH0by6savHo/9WZarTcf+bJ3jZ39kFQjwTmmhAl+Mrshn1361P7qk39642ovRe0DXrzYdfbXzG/k9Hv2zdf4Ab9UWyrM/viLfX/vZyyGW+9jVnsRik/Czd/kDfKq4UJ5FaFtmEhxJOoxtAiXk5zIWu08c+gTyaxQLNViFFoUpb+dcfPbV9lNysw49ZT6xZyzAaJNJrCQPh+Livna1pHeBdqGnzMc71mkkwGYpUZ6kb8VcxHrCmLivXS3pcfEh9rOz7AE2ioXypL3oug4V9IdQwz0MscfFVRI32Xw5EWC0SdqU/jJU0GefebW0DvQylvuL7AEeVBeKkzbku4ssvK9FahO62iQmvmm+uMUCvFReKE1apLaRXjbaOv9+tUksiZN8cRNgNEpapE7vJMCzocI6/6Nxm4UCfKK80FaAP4S2vq5Wp7FRpnksibN8cYsFeKe8IMDJ33QtEOB5KMBb5YXSxL60mPiRxnVsW+nD5wV4ftcBPlVeaDPAB7EA1zXwPN+CNxZgH5YFAzdh4L1QgA1Dg4HT43OS38ACDAZ+cAb2NgMYuIkeOBbgS+UFBu7XwN5mAAN33AN7mwEM3ISBD2IBXqsvMHADPXAwwEv1BQbu18ACDAZuoQcOBvhEfYGBGzDwIhbgnfoCAzfQAwcDvFVfYOB+DSzAYOAWemABBgM/PAOfqi8wcAM98GEswF4IBgN3bGDvE4KBW+iBDwUYDNyvgYMB9kIwGLjjHtgLwWDgjg0swGDgjntgb/SDgTs2sACDgTvugX2SAwzcsYF9kgMM3HEPLMBg4J4NvFRgYOB+e2ABBgPfEwNP3zz97p+//tPzn57+YHENBm6+B/79ofD4+fH/nTD99A/FBwZu28C/PRTefPenp8R/U35g4JZ74F//P18f3/Y/n4swGLhhA28fPfrq+GP/wk+vlCAYuHQPvIgG+PE3n5q2/FYNgoELGzga4PPVp/+dt4oQDFy2B44GeBRv18oQDNyigUd6WoLBwC32wBIMBr73BpZgMHDRHvigcIDtZIGBCxq4eICHH5UiGLhUD1w+wIPzYDBwvwYeLp4pRjBwmR54r3yAbWSBgUsZuEaAtcFg4H574F+wiAYD92vg4Vw5goF77YF/4Z16BAN3a+DhYqkgoQfOb+B5nQAP7xUkGDi/gWsF2D4WGLhAD1wtwBQMBs5v4FmtAH/0MQLogUPRqRdgCgYDZzfwpFqAdcHQA2c3cMUAUzAYuGMDUzD0wB0beDhTlGDgvAaeVgyw/yYp9MCZDVw1wCaiwcB5DfyoZoAvVCX0wFkN/GhVM8E7ZQkGzmrgqgG2jQU9cMcGvrpfAAN3Z+D//WeFAT1wPgNvBmtoMHC3Bj6qGmD70NADZzVw3QBfqkswcE4DH1YN8M/qEnrgnAauG2A9MBg4q4EXVQP8QV1CD5zTwHUDvFWXYOCcBj4QYDBwvz3wXtUAn6hLMHBOA9cN8FJdQg/cr4HX6hIMnNPA85r5NYgFPXBeA88EGAzcr4FrftXOIBb0wJkNXDXABrHAwHkNXPWrdgaxoAfOa+CqX7U7VZZg4KwGrvpJjq2yhB44r4FrBninLMHAeQ28MYgFBu63Bz4yiAUG7tfAhxUDrCqhB85s4IoBNogFBs5t4EW9APukHfTAuQ18UC/ABrHAwLkNvCfAYOB+e+CKAT5VlWDgzAau+ELwVlVCD5zZwBVfCN6pSjBwZgNXfJ/wRFVCD5zZwBXfJ1yqSjBwZgNXfJ9wrSqhB85s4HqvIxnEAgPnN3C1ABvEgh44v4GPagXYJ+3AwPkNfGgQCwzcbw9cLcA+aQcGzm/gRa0AbxUl9MDZDbwnwGDgfg1cLcAnihJ64OwGrvY2w1JRgoGzG7jaMPRaUUIPnN3A1QKsJsHA+Q1caxjaJCX0wAUMXGuW0iQlGLiEgTcGscDA3fbAtYahDWKBgUsYuNIs5amahB64gIErzVJu1SQYuICBK41i7dQk9MAFDFwpwEs1CQYuYOCZAIOB++2BK41iKUkwcAkD1/mwrEEs6IGLGLjOKJZBLDBwEQPXGcXySTvogcsYuMoolklKMHAZA1cZxTJJCT1wGQNXGcXaKkkwcBEDV5nk2ClJ6IGLGLjKV7FOlCQYuIiBq0xyLJUk9MBFDFxlkmOtJMHARQxcY5LDIBb0wIUMLMBg4J4NXOEg2CAW9MClDFwhwAaxwMClDHxQPsAGsaAHLmXgCpMcWxUJBi5k4JkAg4H77YErTHLsVCQYuJCBK/znkZYqEnrgQgaucBC8VpFg4FIGPioeYAUJPXAxAxc/CDaIhURWNQPcu4GLnyP5pB1aDHDQ95/ZA8+yB7j4G8EGsVAlwHtVAzyPGXiSPcATAUZjbCo48SL4uNjGVBoM8PLTN6v4G8GnChJpHIUiNa8a4MQkBjvuEQEufo60VZBII21jdReK1GXQ97GrRR8X+dcrBrFQnEXIUmlyOws+Lpah1jn4uLjI/7gziIXi7IVWp2ly+xB8XMSuFnxcjDrBORBgtMUkZqlNrLPbi13tsMLj4iz/484gFoozjRX5IuaVWYWrXfWR89hTJtfjziAWKrAprtLrZRmL1Cz2uJhkX70WPkcyiIVknoSKfBpcnL6MXW0VC8Emu/zKniP5pB1KNsHvY0l8du1n89jVFrGlcMI64d24u3VUNMAGsZDOi1AS90e76O2Nq40O/sX1q41X8PmNFe/x6J+tx92ssudIPmmHAD+M5Psbv3o89mc3ozFt82qvRt6rstvQW8UIlGQuwMCD2DEIcOIGAyV5UjTASzcYKEnZY6S1GwwUpOwelkEsoGMBCzDQr4ANYgElmZYVsEEsoCRlt6ANYgElmZT+ItapewwU42Xh/BrEAsrxl9L59Uk7oBild7AMYgE9L6AFGCjGl+Xz65N2QCEm5RfQBrGAUg3wcQUB+6QdUIYXFfJrEAsowxeDAAO98mWV/A6n7jTQbX4NYgEd59cgFtBxfn3SDug4vwaxgNw8r5dfcxxAXqbf1MuvUyQgL/vHFfNrExrIyuuhKlpgIB+Pv6mbX5PQQL7u9/lQGV+0A3LF9/Wqdn6NcQCZFs/P68d3uFi78cDny/fN0+EueO/W43a+eopRfDfcEVtFilut8mJA4yyVKW7jpXy0jjlK3MoT+Wgeh0i4jX3xaJ+dOoUFdL8raIdIIOB+8SYSCLhjHCLhFibS0QFW0LAF3S/GsHAbK/GwgoYtLBRkqVDx5yykwwoaVtCwgoY9aNiDRgJ70mEFjX45FA8raGiBYQUNLTD+BHPQ0AJ3zE6dQgvcLb7FgVvZyEfz+BYHbkU82mepTGEPyyEw7GHBITAaYiEfzW9hrZUpbELbwsI9ZCUgtrAgwLCFBZvQ+APPVCluZSYgjXOuSOEUyRkS7iUHEtL4GZIahVOkfnmnRvERjkTEEAf6ZSMjBIx+cQxMwOgYGSFg9Is5DgKGAIOAcRcYxHIGjI6ZS0nDfK1A8XFMUjaM15AgwB3zTH3iExyIiR0s9MtCThwhoV8OBcUCGgKM3PyoOCHAFtAQYFhAo02ORMUONAQYRjggwPiVcw0wBLjfDSwNMARYfiHAqM+3yhICLL8QYFRfP8sv/sveHRs3boRRANadggsUoASWgBKgJuzA0TXhmCjFnYAlKLHnQpbAwGNfoNN4xgpsnWQKsLC7eOL31bBvCPz/W1CAvf8iwNTfH8kvAhzrt9GJRIC9/iLA+PlFgJnnh18cRgQ4dHb1o/giwIn+/PnXn6QXAY4bWTl8CHCue4cPAc71u8OHAOf66vAhwLnuHD4EWIARYBo4OHwIcK5bhw8BzjU6fAiwHgcCjAAjwChiIcCKWCDAilgIMHocCDACjAArYoEAK2IhwChiIcAXy9FDgBWxEGAUsRBgFLEQYEUsEGA9DgQYAUaAUcRCgBWxQIAVsRBg9DgQYAEGAVbE4lLthEkRCwFGEQsB1uMA78Cbd3Ty8AusiIUAo4iFAKOIhQDrcYAAb9yDg4cA63EgwNIkwAgwS5wcPNbRS5MiFgKMIhYCrMcBAqzHgQBTjHPHSjppUsRCgFnAB3UQYD0OEOAWfFCHtXwSJz0OBBg9DjxCX4aDc4dfYEUsEGA9DgQYPQ4E+DL4oA4CrMcBV1c38qTHgQAz38mxQ4AVsUCA9ThIdi1PehwIMPONjh0CrMcBVx8ESo8DAUaPAwEWYBBgPQ4EGD0OBBg9Dor5KFB6HAgwehwIsB4HLCJRehwIMNbACLAAwyJ7kdLjQIDR40CA9ThAgPU4EGD0ONi6SaT0OBBg9DgQYGtgWGKQqar8rwoCbA0Mj3YyVdXRkUOA9ThAgPU4EGCWcOIQYD0OeNQLVU33ThwCrMcBjzqhqunkxCHAehzw6JNQ6XEgwFgDI8Dv3ejEIcDWwPDoRqoqcp0fAbYGBgFuwXV+VnYtVdbACDDWwDTwQaqsgRFgBBgBtgaGJT6KlQAjwMzgOj8CrMcB/xCrek6OG2vby5UeBwLM6w6OGwJsDQwC3IDTxuomubIGRoCxBqaBQbCsgcm1EyxrYAQYa2AE2BoYBNgamAvRC5Y1MAKMNTANdJJlDUwu/61iDYwAYw2MAFsDwyL+W8UaGAHGGpgW/LeKNTACjDUwLfhrBlskBBgBRoBtkWARf81QydFZowTRskVCgHnF6KhRwl62bJEQYM56cNIQYFskeGoSrhq+OmkUMQiXNTACjDUwDeyEyxoYAcYamAZ64bIGRoA5xzdlKaSTLmtgcvksZQ0nBw0BtgYGAbZF4v3wXVlbJIL5LKUtEgLMOS4TUoqv2tkiIcCc4zIhpfgspS0SAsw5R+eMUsTLGphge/kqzilDgK2B4blJwGyREGBskWhgEDBbJHLtBMwWCQHGFokGegErbXTKEGBbJHiuk7DCfJKSgnxTxxoYAcYWiRZ8FMsWCQHGFokWfBTLFolgvqlji4QAY4tEC76pU5i7SBQlYrZIBNvLmC0SAowtEgL87jhhFDXJmC0SuQYhK8lVBsraCZktEgKMLRIN9EJmi0SuTshskcjlRr8tEgLMix4cMMpyo98WCQHGFokWXAi2RUKAedHBAUOAc40OGGX5JEdBrjJQnJjZIhFsL2e2SAgwz50cL0qb5KyYo+NFaYOcFXPreFHaTs6KcboQYFsk+G+9oBlCk6sTtFJcZaA8F4KLuXO6EOBcB6eL4lwILmZ0uijuWtAMocnlPmEprjIgwLZIcI4LwYbQJNuLWhlHZwsBznXrbFHBJGplOFoIsCE0nLWTNUNoBJinTo4WNfSyZghNrk7WDKHJ5TqSITQCzFOuMlCH+4SG0ARzn7AI39OhDteRirhzsqjCdSRDaJIJWwmjg0Ude2kzhEaAMYSmgUncDKHJNYibITS5duJmCI0AYwhNA524GUKTy20GQ2gEGENoWnAdyRCaYK4jGUITzHUkQ2iCuY5kCE0ygTOEJthe4lZ2cqgQ4FxHh4p6BokzhCaXMvTanCkEOJc/JqSmXuQMocmlDK1IiQBjCE0LbjMYQhPMbQZFSoK5zbCue0eKmtxmWJfb/NQlc4bQBFOGXtXBiaKqSejWNDpRVDUInSE0uZShFSkRYP52cqCoq5M6RUpyKUMrUiLAmGHRgjL0itzmpzZlaENoBBhFSpoQOzMsgilDK1IiwBhC04IytBkWwXQpzbAQYBQpaUEZ2hCaYLqUZlgIMGZYtKAMvRZfpKQBXUpDaIL5MrQZFskkzwyLYLqU63AZmCYm2TPDIpcytBkWwXQpzbAI1sveKpwkmlDFMsNCgBUpoYUb4TPDIpcupRkWAnzpRieJNoTPDItgupRmWATTpTTDIpgupRkWwXQpzbAIpktphkUwVSwzLIKpYplhEcx3Kc2wCKaK9XZOEc34LqUZFslUscywCKaKZYZFMFUsMyyCqWK9kW+605IqlhkWwVSx3sg33WlJFcsMi2CqWGZYBFPFMsMimQyqcRBMFcsMi2CqWG9ydIJoSpPjTUYniKY0OcywCNZJoRkWuVSx1DgIpsmhxkEwTQ4zLIL5qM4buIpEc5ocahwE0+QwwyLYIIdmWORSxVLjIJgmhxoHwTQ5vAITzEd1/rej00NzmhxqHATT5FDjIJkmhxoHwTQ5zLAIZhGsxkGwXhTVOMilyaHGQTBNDq/ABPNNDq/ABNPkUOMgmSyqcRBMk0ONg2CDNLrJQC5NDjMsgmlyqHEQzCJYjYNgrvSrcRDMItgrMMFc6fcKTDKLYK/ABJsE0iswuSyCvQITzCLYKzDBLIKXundo2A6L4KW+ODRsh0WwmwwEswheyplhSyyCl3GZn00ZZHIRl/nZFItgr8AE62RykdGRYUssgr0CE8ynob0CE8wi2CswyeyRvAITbJJKr8DkskfyCkywXiy9ApPLHskrMMFcKPQKTDB7JK/ABHOh0CswySyCvQITbBDMmf5wWNgei2CvwASzR5rrs8PC9tgjzfTNKzAbZI80kz9FYovskWa6c1bYInukeW4dFbbIHmneK7CTwibZI3kFJpg9kldggtkjeQUmmD2SV2CSSadXYILZI81wdE4whs41OidsVC+er/I1HTbLHul1rhKyWfZIr/vsmLBV9kiWSBhDWyJBE5OE6lGSyx5Jj5JgnYR6BcYY2hIJjKH1KGEREdWjJJg90ln+kgFjaEskKMR1BkskgrnOYImEMbQeJbTg3xkskTCGfqdP0KPzgTG0J2gwhrZEAmNoSySMoS2RwBjaTSQwhi7ks8OBMbQnaDCGtkQCY2hLJIyhL8PobGAMHctdfjJMwuoJGmNoNSxooBPWF/hXUUL4NvRLvjgYGEN7gobSlCnVsAg2yKuLDORSpnSRgWDKlJ6gMcVykQFaUKZ85uhUkEOZ8vsn6NGhIIcypSdoTLFcZIAWlCm/4wkaUyxP0FCHMqUnaEyxPEFDC53Q/ouP6WCK5QkaalGm9ASNKZYnaDDF8gQNy/Ry6wkaUyxP0GCK5QkaTLE8QWOKpQcNm6eL5QkaU6x4vsXxF3t3rBvFFYUBWLsIOQsFVUS5EhKySONHsB+BZg2OFNlNUMRLrF+CoKQxDZHYlzCP4CK2aKz4IbBEwXoSE0LsNSEY1jtzzvm+jnL2zs9/7507Y0LyRqEZNHaxwjtyJ2AXywwaFst3scygCcxRjlNbbgTsYsWdQbsPiGpXfv1NQuLyQpK/6o1drMhO3AXYxYrrlbuAuBzlMIMmsPJHObzKj0WwF5GgFQPHKCGu6kc5HKMktuJHObbcAYRW+yiHY5QEV/urHB4CYxHsITC0pvJRDg+BCa/yUY49w090hY9yeAhMfIXfZ/AQGItgW1hgEexNYLAItoWFRbAtLLAItoUFFsHeYwCLYFtYWATbwgKLYFtYYBFsCwuKnDKYCwAAIABJREFULoJtYZFGwXeCbWGRyK4tLIhrxRYWxFXuw1i+hYVFsBcJoRuKPUjyLSxyWfYMCeK6VmsLy4CTTKnTlHvGG4tgz5CgKyqdpvQMiXQqPUhSwORT5zSl95Awh3aIA7qkzGc5HOIgpSoPkrYMNRkVeZDkRWByKvJG0p6RJqV+iTm0U5SYQytg6JwKD5KcoiTvHNopSghsRwGDObQChhb0FDAEtquAwRy6qwW8Zogxh/YeIZhDe48QzKEVMJSYQytgzKEVMJhDK2Awh1bAcE7W89CeAWMOHdjvhpYKsn6XY9vQYg7tFDR0W8pv23kNiTLGChjiWlHAEFdPAUNg6Y5T+hY0laR7FLxnTCkk26Ngf46QWoa5ArxlRClloIDBNpYCBttY3mKAqttYznBQ0LIzHGAbyxkOaMPQDhaoYI+QoA053utfM5DUtGQHCwJL8CTJIyRUcGD3jSJlxT/MYQeLypbtYIEKtoMFKtgOFhSq4C0DiAq2gwUq2AQaVLBHwFChgk2gIW4Fm0DDOzEr+KGBg1MDE2gIbMcEGlSwHWhow9AEGuKK9ijJBBrOCvYoacuIwVmbkfLrL6lA3H2sY8MFM27HWQCbQEPcfSxHsOCi60Hye2Co4CNinMc63jZS8BG9sQUwxLVsAQwm0Z4AQxs6vxPtCTB8Qsd3oh2Bhk+6bQMLAk+iN21gQVyD7i6D/R0k+F93ncCCwJ46gQWWwfILbejikUob0PC5rssvBNa5Q9HyC3E3sjwAhkvZlF+Iq0tb0fILl9WdrWj5hcvryplK+YW4CZZf+DL3xvILcV2XXwis5TeTpvILYTvY+UmIuw4+ll8Im2DvD8IctPQ06UB+YR5utHGq8nu/O8zH4s9FT3/yq8PcErzgtwuPn/nNYY6eLzK/635vmK/FbUabPsP8LWora3/bbw1X4Mki6tfuM4SdRu8/8yvDVek/UL8Q2PMrLOGR1S9ELeFjm8+wiJXwptkzBC7h+c+j182eYWFujOa7+H3mJ4WgEfboCMJGWPtCSxF+8LVr4em6+EJr+k++Zkf60M4ztOzeF9bw1NwZOlHDzy+9Gp7uT/xu0JkMvxj98flHrkbSC13z3ZPPCPHh6LGZM3TUjclodPgf2f1htDHZ9hNB5yfUdyaTyYvfHj3a+PHnjV9+ffzXv+74VQAAAAAAAAAAAAAAAAAAAAAAAAAAAAAAAAAAAAAAAAAAAAAAAAAAAAAAAAAAAAAAAAAAAAAAAAAAAAAAAAAAAAAAAAAAAAAAAAAAAAAAAAAAAAAAAAAAAAAAAAAAAAAAAAAAAAAAAAAAAAAAAAAAAAAAAAAAAAAAAAAAAAAAAAAAAAAAAAAAAAAAAAAAAAAAAAAAAAAAAAAAAAAAAAAAAAAAAAAAAAAAitgucp3fGGryedo0zUGBDH97ep2Gm2SWm6bEnX333XU+NOCkMmj+dj/5dfbH7y5zumbIyWTnfYCnySfRw/fX+dqQk0iv+cdehQJWweSy8iHAJwVW+qdeGXTyGH+4sZvU1bT74TKnBp00Bv/mt3lTYqWQ/D8qqs6gc1fT0pnrNIcm4cwydzXtnLnME8NOEv2z+U28D90fn73ObQNPDjfPBTjvI9Leues8MvDkWxpmXgSfv843Bp4chudu7Lxzy2GRmQbFjJsac8txkZkGtZzfw8q7izV7nWuGngx6Mzf26yLXeWToyWBp5sZ+W+Q69ww9GdyaubGnRa7TNjQpzGxCp92GHhaZaVDMalNjd2e1yEyDYnZnA/wy53WOBZgKN3bW3Z2myFKBWvpNjQBfvM41g098vQs39psi1/nS4JPxxs55kuPahes8MvhkvLFzBnipyFKBYm5euLHfCjDEvbFzfm3mVpG1PgKc8jpXBJgaAZ4WCbBX+hHgMIYCTI21oQCDAHc+wF5HImWAGwEGAe6WVQFGgAUYBLgTAfbnkRBgDQwCrIFBgDUwAqyBQYA1MAiwBgYB1sAIsAYGAdbAIMAaGDQwCLAGBgHWwCDAGhgB1sAgwBoYBFgDgwBrYARYA4MAa2AQYA2MAGtgEGANDAKsgUGANTACrIFBgDUwCLAGBgHWwAiwBgYB1sAgwBoYAdbAIMAaGARYA4MAa2AEWAODAGtgEGANDBoYBFgDgwBrYBBgDYwAa2AQYA0MAqyBQYA1MAKsgUGANTAIsAZGgDUwCLAGBgHWwCDAGhgB1sAgwBoYBFgDgwBrYARYA4MAa2AQYA2MAGtgEGANDAKsgUGANTACrIFBgDUwCLAGBgHWwAiwBgYB1sAgwBoYAdbAIMAaGARYA//J3vnrtq1kYTzkIuAqKlKmJHABQ7hp9AjRG2waJ4GBC6laBOmDLalyX8AIchulMTbrl5AfgcV11s3i+hFcSIoK07Nx/jiyRc7M+TOzpPx9bUwNqTm/851zRlIgCADDgSEADAeGIAAMB4YgAAwHhiA4MAQBYDgwBAFgODAEAWA4MASA4cAQBIDhwBAEgOHAEASA4cAQAIYDQxAAhgNDEACGA0MAGA4MQQAYDgxBABgODEEAGA4MAWA4MAQBYDgwBAFgODAEAWA4MASA4cAQBIDhwBAEgOHAEACGA0MQAIYDQxAAhgNDEACGA0MAGA4MQQAYDgxBABgODEEAGA4MAWA4MAQBYDgwBAFgODAEgOHAEASA4cAQBIDhwBAEgOHAEACGA0MQAIYDQxAAhgNDEBwYggAwHBiCADAcGIIAMBwYAsBwYAgCwHBgCALAcGAIAsBwYAgAw4EhCADDgSEIAMOBIQDcQYD/enwtODAEgLsH8K/7xbdbrU7fxHfgo/0DxA0UQenRb//4Eqmf9w+mMQD+5fj9++OPEfB9uXm3y9eRHfjdl2tX3Ht/dPz3N8fTSPv/6Pj975QqBWoXvofFTbBWpx8CA/zocPzt6s/7YRlOX96939MpC2CmAw++XvwH59KnPwqHtwdChv/ps9if3x/07YuPoKF7Oipux+tBSIDT/VtETcI9Vm+8fcPVhAMwz4GT71fTH/HpZuapJFX4XmGWE0qVYpYo+rtmv1s+1WBUKgDv3UkW5kWo59payZdgLQfOv19NLqIP7yy//MB+D5yPnB5uPa1npwG1Q3U+Vb/nCgCn77ZfYxmmz9sz9XITrOTAyc3lI9p7VLMhr5i5+VsOW1rambrdNzDhDvFbeIe5HOB0zDRFPX49llNy4OHN5Qv5hvDqlB81wBlx980ngNFtfmvDXAxwPb9BCO6ZZlXTKA68MRdU2BAOUonrBhp3HwR3nd8vmz7SBriJ3wAEJ4UFYFtJqefA/Y3rzxU2hOHBg5uLS+ruN5s21Kb51dgW5lNlgMd8U6TK9lzOkx0dB843rveuoVMLUvQ++OeLrci7z227oZiaWcN8pQvwO4EpEvXEODQJ7sDprfykknioZcpmGzEl736QyQSkqoEjzM80Ad6TmKJeA+zh+CoOnN16gZFG4qGWKcONa0v67i8BSNsbYEMzKhHAvcKx1nO9xqBwPpg1X6g48O17KL2ueaiL1NxaxLt3H21whxvguogRATwWmaJuAe2oRzUc+A4ea53EQ0IqsRfxYxNvR6D/RwG9FTESgD0WWyk9V8+HX5ubaThwzniBmSjtbKlvLeJ9stwCkHS6gL57liQA2GsxpSJ67AWwxc0UHPiumfpMsR7K0o61Bd4q4v2yHCy4xZp5beFKB2CvxXRKtoEfv5bVFBw4u/sKIzLz4iJ6bnPTsVFeDYqsh55xPtEA2HMxjUm0HwfW6FRw4K2Eda6UeAhJrrDUAJ5ZrgInrZ1g+cZ5pQCw92Ij+YP5GrCFBbkDJ1uvsKZfIuxLE0s57L0h5yClwxOsu80TG2DvxVbxEpPFguUOPKBzNzP0kogww7qdHJ8Y7XQBtdSAN42KCzBhsUm8xNRswXIHLsiv0DPaSS5rTMTebo+TpB0w4A2j4gJMWGwVLzE1W7DYgfv0bnJmtJPcnYMsc9H8T171F9RNA97IwkyASYtN4iWmRn8RO3BOPpHpGfUk96yxGk4Ii6GG7rwB/8zCTIBJi63iJaZGf5E6cEqfz82MepIrGpNQTslxgKXrBvxzE3kAExcTWXBG47chPKUOnJHnuT2jn+QanzUhLYY5dOcN+MaoeAATFxNZMNGAG9KF1IHn5GYyN+pJLmncqyFprTVwaZ+ocb4SAEytaiVnwX0qv/UtntCB6+30ggSbvDFNmt5Y4obgv4Vqn+hxPuEDnJkA0anRSTanC6ED52QnGxr9JNdvuohafk0BTNs0YxoVC+A5dS3+0WNC57f2JEnmwA0Ot1AsUnySXNbUzVIXOwEwLRMnzkdcgHs6THlpyHiwSt2BMzJzmQmQ5LKGLpy8WAliWqYh16g4AOc6TIUZYTUMhGQO3FDfXKret5uqxw3XzAK4PRRTacE1KgbAqRJTAuujx6fIgRPyMKhnQiS5Yf0YjV5+YYrVMvHifMIDOFNiKtAIq35II3LgARm5PEiSy+vHaIzyC8h0fYT1AyoGwIUSU4Fa+/pqVOTABRVgVkXkTnINADMWG4GZro+wvkNFB7inxVSwyqLukyMSB+6Ri17efTvHWM9qmecsdg5o2qQB36joAA95a7HarrkxSjW0xIFzMsCzMEmuHuA8VjqFQqngGxUZ4JS7GKNq41YWNQEqcOCUPHZK1AoHD4BZi10Amh2ooK+hIgPc567F+ADugP1gK0UHzsizoIEJk+TmdQDHnClCQTRkx/kZHeCcuxbjKLhgP9hWDS1w4DkZ4IK/H3SA5wD4vlbQ10FMBTjlLzahPhe/stiuofkOnJBPY/j3vaQDnDA3HmqNeoI4H1EBzvhrkWvooeDBFmoOnJMBFtz3iAjwJbNcx3f6d6KC/lKzUQHO+WuRg0ZQQW/V0HwHLsgAC+77jOzABQC+vxW0MSsiwKlkMWINLamgt2potgNnZAwk911RAeYuBmx2YAZ9rb/R9rYvWYtYQw9ED7ZQcuAZGTdJRWSvoWsAHugUKFA3K2hj/qQBnJtg9kKZ/tIX4zpwQn8gUeV/RuyBCwDcdcninFhdiYKT9lmORPgYIxUHHpABlt33FW2rlwYA3+sKmghwX/bKpK/1Z8LHWKs4cEGmLTPBkpxirgbAbVEWE2BZuU47fcyN5mJMB+7Rn0dIWRkH4BHIaYnymAAXEfN+oRqjTAe2v7t1OSAV3vUKAN8rpSYiwOJyvfR/sJ5RXYznwI5Ts0WIimiKEvo+qR8TYHFwEj6COzSqi/EcOKOfi4kronM4MA6RAgE8k7404SBJHqyV3IEdN3ERovJfwIHvk4qIAKdFvMSfKAcpy4FdN1GGuO8KDoxDpDAAK5Tr3gdJGsP1c6kDDwkLfNcgJFtwYBwiSQBWKNe9D5I0huul1IELOmoz3dsGwDhE0gN4HjFwNFqDhdCB+/SHSZVvGwCjBVYDWOXE6jxia3AldGCXm1aBDgWmEQAGOjvbApug5brnN5JU1qpkDpxQEoTmocAEAKMFDrC3ubYrBm8NRiIHds6jFoEQW4cHGF/o390W2IQNH7/mqwgP8KX4HsowXUbzpykBMFpgPsBK5bpXE6y0Vilx4B7jUZQ+FzcNDjB+1G53W2DDnckqNsFZBIBdDpwzOBvq3PckOMCXgGdnW+AmgIcRc3+unizIDuz+2NlVMMLWwQHG70LvbgtsAkePTxM8Vw9TsgNnDMy0vhq2Cg7wGvDsbAvcALDa9xY9mmCttS4FDjxjPEi/IznUmAvAs7MtsAnaAnslf621rvgO7H5va/4zULWW5iQ0wCXoaYH6MQEeGn2qHoRttzcPS6gO7L6FmjbyWWC+9AA+AT0t0DAmwGr9tvO/sdZbq+I7sLs7OQ/Y0ixCAzwCPS3QPCbARcTgKfQfhejAfUpy0G9pqtAbDnhaoLSICLBiv+3svxITA+BLWQ1wFvRUbxQWYHwQa4dnWIZ5qqJ3Bqm31pTpwAkLsTx0kptH2wIogrKYACsGpzP951EAvhS9tauwLc06LMA4Bm6D8pgAa/bbriY4xKyG5sAFxyI1f+H3Kuwbg1OkHZ5h1QKs+vPT544HM1EAtjiw+3sMdaN01ZZmGnTHMYRuwwzLRATYLzg/jzUKOL+13v7ntyKUA7trmyA/6e5ETAtgzLDaoL/EBNgjOJdvrl3jeN/9l+JPIZvq4KtD/fu3IA7sMd6fhG5pypAA48uEXZlhvX1z/Mvx4Us5wM7gXL7+8aePXgoNwA3Ci5u//XUcwIEznoX5nOp93t/ff8ueE9MA/u91lnt69BIzrK7OsE4/+IW5B8Cu0Dnd7NkOZS2Ya63q9aZbjvUdeMY5BPZpaU4/fvvLozHPJCkA/3yXtnf/HPR0YYZ1sPHH72QAu4Lz0+0/PxINQV2Rebt8tRLMcmCPHnzKaWk2Ek96yFqCAPBmRk3f+UzIoMiixfmRCOCEeCj6RDDFcvFzt/20Ecxy4AGvvnUV3stb2Oy51jgRAWzNqCvA0wJR43xPAnBGCE0Px78U9PavKDOnKceB3b3sOaOlufsm7TGqFG+AtxDdwylwx2ZYr4hM2QEeErzeozW1TrGGFGv5qp7qJ7FY32Nw0rV9cDygu7wvwDUZ9V84BW6Z7HH+R80VYz7Ac+pEx/FZiBF3OLesbd+euB/F34Hdw8E1o6WZUGdlV3yAq5F1MocKuhV6Zo3z2qK7YANcUMo1D4OxjUEL6vmrpYh+QHdgj2HyiN7SnFHumpdHf+q5/T16DnjaIEacD7gAJ9R07wrPi+bnSslm39xPcH6Rg/c9Bsd1tQmVXqX4AfzpgXU1fAyrFWLF+YwJcJ+x1oOH1DGu+zSm+cc8CjrADQ7shqSktzT1CdU+rC+ZADe+STkMuEXqc7awxwT4MYcpW7qoeMO5knjVFd2Be1xAcka+slYpaybAjW/St9XQAbd/CF3yBkTNAOcMA7azMOXcYkXtKC7pDux+hxbklqZqnNkNaOv4ALy0bMiXe1xiBN0O8eI84QE85xiw1YJHnOFcSU1oC7IDM7/HYG9pzliTjIoHsK1CTo9+nwKd1g+hSx73FoBZsWm14JIR0hV5qLcmOzDzewzW1GhLchmpSpmLDBjqxhDaGucJB+CEUwrbA27NGM6V1rUG9mG3pwPzvsdgJ/GMeZhwwgG4BBpdH0KX3NK7EeA+Z5psj+oFfQjt+D3puuK3pDow78fs7EPoasScZZQMgHFG1BGx47zHAPgx9XjE3VFW9IA+o08FTqgO7D4pX5ET44L5FtVUKXNufQB1Zwjt+rJ2QQc4p3zcz9OXpuQrXOPTxHqJnwMX7BK14N73gPCVDzfAmFF1RPw4z+gAz9kNV0K+zZxqfbbbnBIduMcuUdP/sXfGyI4jNxgWqXKxxgx0BEauCXkE6QibOPbchLrJOPI1+h2B4YQ8ggLWlAJJz7Vlez07wwbQDTTJ7vf/6e5IJNUffgCN5nuPve4q4LtYgPG+51wUv87rcICHuGw9iv0hvjvTUASIHDj2HAOF4RT9U/5qpyzAX0BG7k3oMZ59H8CVIt43gdPQ9Xt8sKgoRCUOHHuOgbpPvqvUyr/MReYH0O6kWOefQgE+RpsLwcQc6GSS5LAj7FLiwHx14S36T4qukjwYcwCjhZWLVOs8FOBGE++/hqHQapLDhgBA4sCx5xiotObCX3YvzlJcZH4A7U2twhTZPyss/f9FLycNpF8VLGpiPQscOPJldiRaL9No7CLzA2hvUq3zT4EAd5qOSR3mFp2qvdr5cRM4cPQ5BiINHiWXPUiBdJjCKkS9ap0PYQAPqo7JV/Gg4DJn8szi57j2OoQ5cOw5BipMXSWX/Vkajh0y6EKkW+d9GMC6PccmyC50waL2p/i8A0efYyD6fLLDt5WUSIcMuhAN0T1oQQ4tXF6yYOH95/cQJ5MOKDjvBfIOHH2OIThKiVOityCA0YPOR8p1PoQAfFQFC++XzSG0S6u7xpu+sg4cf47h4N9FEj6jXnjbDhl0GdKu8y4E4EY5tdcHJHytcsS38n4B68Dx5xj8D1T6+ppPwizFYYqjDLXKGNyEANwrW55twHprtNXd4MsoWQeOP8fgJ2uMuGwqSLqYKU9of9Ku8zoE4E6ZsPkOzF3lbi2v7j77LpBz4OiX2VEAip9RJ/tBSYAncJGNem0MdgEAO23C9lW+urXB4ofQ9FP6yjmwZhPYFxCf2oj8DPjZxD0JaHt12hjcBwA8aA+ufZZfrTpY/P/ORg7ghyRNkM2tVNrDfZWs9nc4SViGnDYGV3KAa/XUTyX/BHWw+IPEn1/uxjiw4hyDv8yftL/oz/tIDmNYZWhQ9Tw5wxHhd1Vf7l2civ4W8mz+suyXjAMrzjH48Q94RrJOocMmUhGq9W3Ir2KAW/2exVepr1YW+yN/+z1e/PLXVWkH1pxj8OIXMhnVagHGJlJGqkKmi4Pq0gWAG33F9Vm6vluT6u6v//r7Pw88wA9pT4C/iE4dUGUx2aEELkKtPqv9JAa411dcR6lnNOmqO9qB+RbWFF7BTiHX5yRYOpTARahRZ2zkTrDEXS4GX3YVpqKXNAA/2IgozlAHdUCVZeEOJXAROhlM4jgpwM6g4nLCNdeJTkfZO7DmHIM3QL0MgvJT+qOhBM5JncEkTi8FeDCouHrhBZ/TnZKjHFh1jsH778OekajZ71ACF6GzQRLVSgG2qLikte2QbsaXcmDVOQZvjR/4jAbBj+pQAhchi6y2EgJcWczdVsKcP+HapBxYdY7BG58Cq1JJWuUwCF2ELLJaYtUK3OWa5IrrhO0ZwoF15xh8PYnQqlSSpbioXWpoZ1pe5zeTQvoXgFuTlsnil8leC2nUniEcWHWOwVviPwIvUJKluJg5T2hvMslqicKPN4bglkkvQrNNuDb9Dqw7x+CNAHeTsDzLAEYPKyfZZLWtDODepCyV+XiT8Jy634E1L7MjuAquSh3v4w49rBLUmGSalQzgzmRxVqKYc0q4Nv0OrNwE9lX4waV7x/+sDmMcJehkk0QNIoDPNi0T0RrvEq5NrwNrN4EPy83zZ4q47NDDKkG9TabZiQAebPpKTnL6oku4Nr0OzJ9jiPoLv+Glu6AycuhhlSCbrNa/clmAZ6NrHgWUW80Ieh1YeY7BB3B4QBVsojn0sErQ2SbTbCQA10Z9pUYC8JBwbfocWHuOwfcREaX7wGYpDj2sEjTYTPxXEoAro/VylASChE1orwPzm8D3qOAUUbrzmZXDHFapAEdUQbUE4KPR4qwFmV+d0lw8DmzQwlpuKkaU7nwT3qEJXYBqqyrICQBurfpKAz+sVKVcmx4H1r3Mzu+cMaV7yw7YOZwlLECVxSAllT1y6WHUenE8G8eUGyQeB9aeY/A9x9nqh70LAEYTOisdraqgXgDwyWDK1/tlT76WNDOXZQfmzzEIIsjZKKDyTTyHJnQBaq0yzUYAcG/VV2r4zltjFSzkDqw+x+DjLqp0d9wDcGhCF6DGKtOsBAB3VutFkB+fEjahlx1Yf47BB3BU6d5x6bFDE7oAnawyzVoA8NlqvQg6VF1Kc1l0YP05Bt9jjCrd2TLDoQldgHqzTHPgATZzlwM/S9mlNJdFB9afY/CEprjSnS0znOQdSNDO1Zllmi4O4IPZl01sM+iSDuCXySbwMsBxAbXivNxhF6kAnc0yzY4H2G698AnykPKYzZIDa19m528qxgXUmgshDk3oAuTMMs0TC3Btt156drNlSGkuSw5ssQm8nPhGlu5DFMB3MJGV7MrSlgW4sgO4YZdeyl2kJQcWnGO4Rt7YlCY2O+wiFQpwXKZZsQAf7dZLy8WCOml2uODAJpvAy3lMZOnOlRkOu0j5q7YrS2sW4NZuvbBmXiXNDn8F+Mm3sL7EUhdZuvdRAF8ARU6qDIdhBw7gxm691Nx1V0mzw/N7uGSPtbMr3RumT+DwPp0yAY7NNF0MwFe7aPHkcuxpU4DH2E+ODahcQ9thFyl/HQ0zzY4DuDccG3DM2muSZocxAF9j72tOFJwdziLlr9Yw0+w5gA3Tw8VowQF83RJgIYaDXUCtYwDGNnBeMty18GwE09BF7+z0DKCnpNlhBMBTNMDRpftAP28AXCjAF8PP+hPAZ8P1wl14nzQ7DAdYGj0se2+OfgbO6l0O0HYy3Hb0vIqYXjHROzstc+GWbm8B8DfZB9fsIQ1dmfHkAB7BRFay7CtVHMCW6WHFrPQuaXYYDvAl/rYuhj8uC/AbmMhKln2lOgLgyRLgiUbstiHA3xW3Fd17OwUnRJjjKADg+FJxYAA2DfjhY0bjhgBLv7u17L0xnXiHOY78ZdlXWl4RtENfLKPFmMjt9QA/r/EAxwfUI/3AHeY48pdlX2l5WSdKD5eu/EYD/LYdwOKg2Fj23ioAXLwGy1KxCwb4acrQnb6xy3YAf1EAHJ8R1eEAP4BE9gDHl4qnNQFm2sxpy7tAgJ+aR3g3/XXfaIAxx5GZTEf+mdeoHU0Dfk+uvjrt29oCAf6muaubKcATDTDex5GXbPtKLQ1waxrwT+SnVWnLu0CA5Y+0M22en8lPc5jjAMB/0pEG2LS+Y9o9VdpzNuc0LaxFgOMzIiYcAOD8ZdsYroIBVqSH9IZLlbY/EwbwpELuzbTMYACewETuACsyzToYYEXAP5KXfkzbnzmnaWEtfnB8RrRUZtxogC9gIisdbUtFGuCTKcB07GnT9meCAA75YmfJVN2QFwOA81drWyoOJMC9acZGA2ybrusAvimfoKkYgK9gIneANaWiIwG2re8OK6brOoAfewJ4Jn8tDGJlJtvG8OK6JgHWZGwD5R97AvgJgKE8AO5CAb6mAviUtsEa1oUOCFPv2wKMV9rlD/AtGcBn2+Eost9zSntUPQxguffXyQF+kA8Qo9CZybYxzLzf42ybsZE7Ln3aBmuqQY6tAcYodGbqbQGmXwHhbAHusgFYnphWyQF+AeDCAdaUig0J8JAc4LdU9bYOYPlXbw0wzjJkpm5bgF+lfFPCAAAbk0lEQVTGwYcE+LAdwNN+AH6SAN+ARPYAa3o9bSDAD2OAJ+LGnhsCLObiuDHAI5DIHmBNqXgMBFhVcpE7ReddATwDYCgHgCsSYOOeCTmrsS+Axd/dbgzwBCTy0tm21xMK8D0ZwC7tjEIgwOKomB7gdwBcOMCHVADXxgC3GQE8xgelVQF+AxJ5ydkCXAcCfFsR4MeWAM/7AfhK/fgXIJE7wLpSMRBgVc/kSAUE44aZFuAXAIZyAHggAK6MAa4yAljaWQDAkBK4FwBOAfCX3QB8oQC+AgkAHADwZAzwnbiQ+6YAC0PVCQBDOuAeADgFwHMeAIOIDw6wWxHgOieAha2FHgBDOoDnZAAfjbcda8rnEs/pnxXc7BhgvFHnowN8DgNY1/TMCuARAEP2ev84AI/bAnwHwND+Ae5WTKGp9KHeHcCv2OdnrTcADICjAG6tHTgrgGU7NN22DoyXUuYP8D0fgN+zAvhLBg4MgAEwHFjTxQLAUE4AX40BfuwY4BkAQysAfMsZ4D078DMDgPFe948OcE8A3GwL8LQxwKJ6AQBDuwX4gzuw6AIAMPRxHJhYgNUOHfgOgCEALAN4jyn0CwBDADhfB5bc7XlbgPGnkQAwHFiAzl4dGADnD/BYBMDWr+8xAXjcPcBIoeHAcGDNKAccGPo4AOc1iSUa5UANDMGB9wqwYJQDDgzBgXcL8Lh3gFEDA2AA/P6P+FEOODC0KcBdGMCXEgF+NvGjHKiBIQC8McDfKi/a14jnZ60LAC4a4KwP9O8C4OvS6+2F97sxwKiBAfCmDryHt1LOBIbjzgGGAwPgTR14D++Fnog/UTbvAOArAC4aYOu3Uj4/GMC/3++n6FGOFQA+AGAAbAXwm/HFP7YH+L5cgQsjVnqAnwfUwAA4YGGvCvBMuPNKf9zssoyGcCC73xZgODAADqqBJ8131XsE+DvN4X1zgF8AGAD75cIceE2A51UA/k+fOXqUIz3AMwAuG+BHMoCPxls71Q4B/u+oRvQoR3qA76iBAXBIY/hjATx7v17WxTolB/gGBy5JQ8S8bqYAP9YA+AvXTR63BngEwAA4DmDr19wcqfzQbQLwHzcbO8rRrDiIBYCLTKGfxp/3ogC+rQjwawWAv/3vv8eOcqQH+IoauGwHVgFcBwKs2tppqc87G0cmGcAX4kGIiuDkAD8PcGAAvA+AG8rRNwH4OwWHaOcsOcAPAFw4wO/GfaWHrOlUBMA/lPSRoxzJAb4D4KLkyCLJFuB6TYA728gkAvjHTd7IUY42NcDTATVw4QBfbPtKMwWwasGcKAvsbCOTCOCZDmWSOJIc4AscuCidtwVY1RnuAwG+pAb4whQngss4rtjDAsAAWGAgP6wJ4z2rjgK4Xx/gF3d1gr3v1ADPALgsdbZH/Jo9A/yWGOBR1o6aA5sIqeawUAMXCvBkC/CdzCqNIZqoAnlKDPCfa+y4UY7UAF/hwMUDPNr2lWiANY0lFwjwmBbgnxZ/3ChHYoBfBwAMgMP6SjcSYE1dOlBZcrM6wBMfX/hMoF4xgwbABai3nU/uAo+vrQrwLSnAT8Gj5Uc56hUzaNTAZQJ8twV4JAHWNJbI7LQxnttkAZ4F/YBfBi5FN5WoBw0HLkEn2+koRwJ8DksnGdUkwO170tUpALiK6mIN/2bv3JXbSK4wzB6UagqaAJHL4UQulKJ5BPARNpHWtYmY2OXaXOWw+RIqlSM4Wnv5EsNHYLArKzMeQQGkYkCgV7e1d6np7vP3Od0ke86JMTegv3P5+weQE+AzBbi2aGXdURYFmDGXmiDAizsHOM3KkRPgn04U4BkAfJQFeEedkNFYBGc8I2z7SgA4ycqREeB351GAdQauAGCOucKhADPm0i7oMzbSP1WAA5xk5RjL8asVuILoRNf5VFd7GQR4L5p77hfASVaOCYC/v5CIf1OupQBXADDDXBEeS6ckb0bPtgqS0Yg+WBLADXE3J3JiUQ+3AlxZLJzkgomcbSU6lw7h0uaykkABOMnKIWxOBwHWGfihhRFd5234bLIDdx9OBzYrCSSAU6wcwuZ0rcAzBHgnCvA5dWrlMxQDeFcY4BQrx5DXAqoAzwDg9AUzhAltRedSG56obVYSSACnWDlWeS2gCnBlMSW0pC+YPrxWO9F+3YY17TErCSSAU6wcmS2gOgPXFk5ywWzCAC8k+/UmssEa/8JffoATrBytK1cWtQJXEFZywYxhgEX7dRNJPf09ADjByiHsbVWAZwjwMdfJjGS/vsABPpYGeIEPwbLOGgW4+hgFF8xUV3sTATh5ybSRbDBkJYEGcIKVw9wpwDoDP7jYCG7txABtJAFeRfrxVVYrFg3gBCuHyesg0wpcW/SCyvAiBqgTbGv7CMBtVisWEWDcytHkdZApwAow1tVeR2bkg+SN7yI3c1kaYK+KdYMAfKkAa/hiENzaWcVEKivYH46Rlb4QtagkApxg5chrQNEZeA4AX+U61yhY7m3kXKKSdyrACVaOOwVYK/CDixYZ0BIEsavYCxLLfeMSAN4XBxi3cozlrFgKcKUA78UWxC0+e7lyb2KbMw0yeWYDGLdy5HWQKcC1RSeoDLuYANPLlfvJ/+GM3c2hOMD4r3LkNaDoDFxbLOTWuYnOeiu5ct9G79uKfnkxEWDcytGXc3JoBa4gjBNThuMAt3LlfoieSlIxSwYYt3LkNaAowLMAOG2dt9GutpUr95voiCuomDEA9lo53gDv4qkCrOGJxomt81UUz04uW9hoNy6omDEAhlWsNmfe0Rm4vrBi+6V9FOBFVOZi5Z04wNfFAYatHF1WA4pW4FkAvBdaD7fHUuOkVqeJG4wFFTMGwLCVw+TMOwpwfTGK7Zfa6JkaJ7U6u3gqEBy4OQCjVg6Tdf9aAa4uNlLrnNDVnjipqriKIxHfKS4CMDoEN1n3r3UGri56qX0kQlc7WaQPYne9iw/cp8UB9v4qxxFoZM4LAawV+OHFILXOJ0vN23i/7mTW3ld3bVxGPZcOMGzlsBnzjgJcX6ykhKWBcKKNVLaw8RM1hIRSAGDYyjFmzDsKcH3RSglLhK6W9Jrkdv12SXMZZWgAYNTK0Wf9HqTOwLVFJ7XOLWGTdxCqih1lZ9VK/oJPOsCoitVn/R6kVuDaYuFkhKWGstm5EsoWK8pNjxllaABg1Mqxyph3FOD6wjgZGZp0nlYoW/QUWbfPKEMDAKNWjtaVkqEV4BqicTLrnMRmJ5QtLKWS92K+Lx7AoJWjc6VkaJ2Bqwgrs84HCsBGJls0pJlyJeb74gEMDsEmY97RCjwXgK8FlvRERjdOZHVOn+YtBZx9eYCXmJXDZMw7CnCFQSJPqKttnAhULSkPdEIDNxdg1Moh83kowHOJXmSdTxfFaxLmR5Fb/mo/WahfZwOMWjlsvryjM3CFMYis847U1XrWMn/lTd1yA/2UTUaAB0zFGkupWFqBq4hWZJ0PtBW6kcgWDXFXxuWbJiGAQRWrz5d3FODZAIyuc1pX63kZqGJ5vuBDG8tvygMMWjmk7GoK8DxiISIsWVpRXElcbEWkYZNPxYIABq0cUnY1nYHnEcYJrHNDlFlbJ6Bi9cST9PlULAxgzMrRukIqllbgKqJxAuu8JWaBDvpqLFTQ9qlzeX6AsSF4IZN3Hj/9zzMFeA5hBdb5QATYOL5k5jnHNZGbfXmAsV/lMCKq4vLjx/paAZ5BjAIq1vQ5bqjwveFX+wmZp3PZmlEMYMzK0Yiois/jb6zOwHVEz59LG3KHOP3C9/z7nWgZjMRwcPL4xwsuwH4rxxm5JQJ1gvWXbHWqFXimAENzaUctip5+HaqKHk33kppWsGb05Ycjfj5nAoxZOUa+TtD8+ib9pABXHyv+Oh/Iy3NDpQ8dgacKq+UPwa8+HfKaCTCmYvX0Yh294OFcAa49Wv5cOpJzQO+4kpkPBvJtIeX+0ZdjvuEBjFk5Bmo7Q+lSrnQGrj0W7Lm0oRfFFftiPR2Fnj0EW8/ZQYAxKwd/s9yQ3lmtwHWEcdwhuKOfoWVfzNJ3ZAZuuW99DSwKMGTl8KjnwBC8Jr2zCnAl4bhD8EAvih33YgaYJlvHHIK3vmNQgL1D8DX9EQFRYiQdpgBXEpa+tqAR+AjwR75YC5ygY5Z74z0GBRj6VY6G+3k0tMN0Bq4kNo43dCFFscF+YzVUFOO9qGGW+7X3/CjAmJXDMofglnaYVuBKonc8sQcpil45h3ixBvl1i4ZZ7kfv2kYBxqwcI1N862n9hgJcSawcT+zp+S4F8sVa6Jt5llXujf8YGGDIysHda7M07hXgSqJ1PLHHIp2qj/b3vGQxXWc2rHLf+o+BAYasHCve52GI3OsMXEn4vixD3Ljo+F9XJytLjYVm6J7VQ/d+DmCAISsHc6+tI96ZVuBKwjiW2IMVxdZxemhvsriB6h6ph24CixsGGLJyMMW3nih+KcC1hGX10FhR9H439j0rWewFmoMw/QcewIiVo+HNNJaYrRTgWmLkFKolVhSNY/TQ3g7aU7+NY/TQfeD+cIAhK4flzDSG+sbqDFxL9JweGiyKJ5bRQ3srqu9gl56amlDVxgGGfpWDJdUP1HZDK3AtMThGz4YCOTJ6aG+y8C1SC32TPlwyr1gAQ1aOntNDW2oaVoBrCW97R+jZ/EVxJwQhBQJfm9inp6Zt6Pt8OMD+xDXx2Byp3pDrtgJcS8CdKYdHb7mPD6Zrh7bEQ3JqMsHVnQAwYuXoGGPGQH5fdQauJfzCUrStxYti65Kh8jbE3q2SNjk1rYPXSAAYsXIYxphhybemFbiasMltLV4U/dkiBtXSf+Qe7i0O8Fty4AGMWDma9DFj6ch1VQGuJsbkttbCTAVq9jG1W/eiH7jYGVwveQBDVg6bPGb09LdVAa4m+tS21l/h/EvNJkIVKN3+/S6bOB1sw6ClAIxs1vWpY0YDNBs6A1cTq9S2dptw4MalQRUowP7OcpOWLZZOHmDEyjGkjhmTF9EKPF8ZOjwrBqZS/y/FhkAMQGUCldvh2m94tW4jT5QCcAdMDm3q7G4BOVEBnoEMHU7525Si2LqkEvxHlzI8t0nZwsTeiRSAG6AtTlX6OqcAzzECWk8o5S+TDguU+wBUoRwTWHiLpGyxzQEwYuVoEluiLZJLdQauJ0Lt6ZukAnxMKvf+5RlqvN3bpNTkzRbL6FWSAEasHDapBC8dD2CtwPXJ0AHhc5lWFIPZwpcugtcKfenCJmSLbR6AEStHn/B5eG9cAZ6zDO3/g6znLm10HoMleHK1NUHoQ/aGHs8Wj+JqcRLAiJVjSGmJHmF6ogJcT7QObzXXwWMuE5ly71AFKyRCh0lwhzMkWeyZACNWjg7OcYHzkwHWGbhGGfoDU1NN2zJcFM9Ts8VUwX8UPuKYnJqmnmzrcgEMWDmCH4hHfVs7rcCzjTAhryfqVLCBDmqlXfhi7s9grgiuO4M+2dplAxixcji49V+iEoECXFGMIFNf/jjXG6FmrIkAfLtlfxzhN7w1Gjn4Ngt/cvkARn6VY0Rb/4BMoADPW4aeIjjCb9h0HwPy91dbRl++Y6Qm9x2VXz7ADdCv9Gjr/wrWI3QGno2K9RXBLx2nKMayhXPPfoNUlN/wd+yiF3v9fxialy4nwIiVI/KBfEXwv5wAwFqBH2x0UUp+U6maVzymhujh7t33n1/65Nv4aw+81PS/a538+Jw6FiQCDFg5IrO7+/n3BP/BKcCzjobA1N9o6zy2sUNh6iOWTz/E3ymv3DME9l+v9deLH57+l36dRIABK0f0A3l3Ru6IThXg+sMS1vmL7y4uLp4S8I18NZ/C1MewtJddcwR2IPgAI1aOMXo/z/755aVPnjsZgHUGrlfFSl7rqdmCHlcsgb0kwIiVg/KBvHj6l3/8EG9TtALPIIYHyVR83hZ8MgGAAStHm/0NUoDnpWLdR6biGpYgCQIAA1YOI/cOnSvA9YcRBfi8EFPxeVvwya75AAO/ytHIzRnkPkhn4MpVrHvHFEHDknsyAYARK8eYu0XRCqwqVpqGJZstrko92Vs+wIiVY1CANYBYlWRKUsU6LaXPXQkADFg5xOYM/WF3VbHuK1OO8k+h3T0CGLBymNz9kM7AVUUjCHDJbLEv9mQ7AYARK0eG2V0rsKpYjJ4ti4r1ljF4JvcVyQD73+XzbLP7lQKsKpasLiyZLXbFnkwE4DuwcijA84j2ATLlSP953YpfKR1gwMqxyKxI6AxcV8i1tacFs8Wx2JMx/140RuXEF5JsaYC1AusQTNKFC0is8k92FAEYsXJs834cCrAOwclMiRkFr4o92V4EYMTKsc7boyjAlcW6JFNSVo5TysVEGvZrGYC9W+CXX720y5tPdQauLLqSTAlZOQ6kJzPSeYkBcAvkvbz7bFqBK4umJFNC2YK45CQa9p0MwAbYfNtmbYgU4NpiU5ApoWxxRXuyXrixYADsTSb7TEPNqQI8lxhKMiUzBJ/SLtYJNxYcgHu62LTM2hDpDKxDMIMpkWxxID6ZQL2/kQK4pT+LhFZ/BACefIgnzyf+mEOj2iH4UDJb8Ddv0vyhHIA7wFMm0PpfMwE2H5PINwrHg4htQaaagu26RL3fSQHcAK2LwP7XjgnwpxwS+FNxjXsU65JMjeXadYmNpFMpgL0PfpnjtgNecdIMbMBPVeMuY1mSqXW5dv2Ev5F0OBEDeABqJXsIfo8kEr8QflQ4HkTYgkyZcu36CX+L7FoO4BboXfqMDREJ4A8vevEtkpc17jL4osl1yWyx41OTdikWwAawTHUZGyIKwObT/1K+0h76gURbkim+bwSQVpia2S0VhwWwL3NN5T7uRtIBmsVvJhbE+893oR6PBxGmJFPsbPEeebRRslnnAdwDAwFzY2APvSP7iVs9+zwJHxSOBxFjQabY2QJq61rJS/EAbgHY2nwN0S/tnbFu20gQhkUaAU9WkTIlrzkIV+kR7EdIIycIEFhlkD64kkLeIUjpawIc8hLKI6hIcu7Oj+BCFlyE8lGSdXFsWbszs9wzme8rDzkuZ8l/5p/dpewj4Em5eVQ0wY1gEFNT1mwheqeSkMbCJuCeQMBJSOcvFnC68fUTmuCfw0OLNGXcSBK6uiKgsbAJOPU4rBkmy81k+fPb3dfhbJPYLxFHIygiasqYLYSvVD+gsbAJ+B5Rfgtv/aeyu5jdHXycfhgejSvTwCpWM8hjaqqorb/bwl44B20V8EDw2UES0PmLBfy4XCWQeXUXrGI1A9vG4yhithC/UZNgDtoq4EwgYIuHnneMAs5n63uddgoE3AxMG49lzGwh9nT9cE7UKOBEIuB+TQ7apwc+OF8L+LL6x2PE0XoPLdZUEc9BW8zoOLCAt8e9CL5SMLZW4Mm0EvDLpbJz9pEaQhbPQZuyheILt0mwvGQVcC4QsN5DzzpWARefqveh8gCLqm0/Qxtt99DyNqkXsdrrc9PUQ4Az+50sQqfUqVnAVdmtBJxeLdeypmijGeiPKCu2Cot4Dlp9HnpLrbcKuOe/jaQ/xu3yKO4eOK1MeCXg5QpWDwG3fx16JB8sj+igtaPNOsEFnEoErD0PPRNn6tmd9ruzEvCk7OxdnSONlntozUZDN6KD1uamkY+Ahe5jIgkpqyefegi4/E/ACUexWr8OrXrCRbxqrxxt0alBwANRTipqyafuIDYCLhYIuEFoq+KhZrB+vGqvHG3qpT+hwcxEAlZ9YnIqF/DtIPYWKwEn1a0lnKVsDrqqqPvZJOUu52kn1mhbm+3Hts+wtt/IZdBJKp35dOAp4DfHVXQpAm4OuqqoXKU8iVftVe2B51e6U3uSPA86SW69DZxB9BbXoR4i4Cahqoranw5WrdDMtaF1w6SKzLyrlYsyoGKSRoqZP9tagVfmCgE3CU1V1D5f1aL3VB1aESRV9MwCzmQ720UNDY2/gKnADUOz3TLSDpbHq/aKWrY9rD2zp98yxZ9CdjVTzS3cDmJvtQr98ooeuP3LWPpf/lYY9tNooXl/YCAVcCrr66U+xSfFJc6PH9YCrrLHOdtIbV/G0ptahWE/NISWhQjrrvzE9zGRfTuUh09xiTOI633gpXgRcKMQN6aWv34lXqGZRwut9K3j8n3pgWxrO6nhcTjv4PooZbraBz5HFg0ij2hqxYZ9ZAqtH8JXTHzPMfunrUXAJ3Kqmvdvd43G4fok1qzq+qeookEk8QqwuATPbaEJSvD9RfHAvAafCJfxk/CPwx3EdwHzOWHDkDWms1iSWvI0WoP/1NsAK/xlITxNnQf3Q7kziOJs/THDUsBniKJJyE48HMaSlP4YtMKyz/1Ng6I85cJLJMH9kDuI1U/qVKV6VmWsQ0TR2hJs3SIUlWC7lXtk77V79gyWSS/xJPSChDuIg8uVgPNFlW7GaKK1JdicnPsxC7BvcpoJyqHi7e5JN6J805z3goQ7iPzbSsCDkp+VbXMJ/mweS1CCn8ZKTrt1UJiPsaTikzD90DPkDOJx2ekOK8syTA0ndeCBl2D3h2sBS/A8SGx9sxE9sPcQE+kl0uPAM+QMorcxV3wO3EDywC1XkIWlUZjYjq06GNj7cvkluoHTqfMOks1/zDiI1Tw8fa1tD1hY7+eBYutao+rZFwEy+SWehE2n7iA2hTdnG7iB9KM1pb4tdwi37hebK6rUvrCWyNOgO6eKMpw7iMn6vlL+wHcjOY5ZE4tYbt0nYbjX5Qr7Nlohn8Zu2Aw3cQUxWFfejD9O2NZ1rHg1seIiZINwbMtKA/vWdK64hGOWnutd/HS7yb5YpxrWsFpqoqPVxIArWM6Sf+HhZ3v2ffBMc4n3ITf09lx3UHnnr6sxaYHbaaLnAcdKinjJYqeCvfrRG+2o1l4mmi56l3OQP42J6/+tsmr5zxUtcFNxiCrMCvSG3+Ili10KvvhTaIDVieVEc4n7FXwhfxqZy8NnNc09ROL3eJ7WsUsSNlncr2BfGXTtJ0kz1UrC/nEw/X73EffObhHoADo8wDb4eejBdrTB5aiG4NJnd8b56i2Dwu4MCtUy9nYFfxlbHu/pzn/AGnSDeR+rJ93d4I3qie7Dj0W4FOSkR/Y76+uW8rfkneVak2rGC0f1Tk/qm3z4XxX8tYax7lXwq7qi2x/ekO+RqIqdmD/luJbPZ2veESWeLW3ELnuTPnv5ChG0UMEvahlru4LLOl+h9MNwuc769/C15l41nect+WgucTPvXF0dGW6i++zqggrbbrYsD5fP65LTlnTxUF+w9N3Qmsa6wy9K9e2/u851b47GvKKw+zU7jiip2/ZQuTzzM/Dx48e/mBzwqTU3VVW+qHWwH+3hBR0YQAAJ/7FR1Ivak/7+qitdVd/XTD1AIH59G3Gwt78w4QAAAAAAAAAAAAAAAAAAAAAAAAAAAAAAAAAAAAAAAAAAAAAAAAAAAAAAAAAAAAAAAAAAAAAAAAAAAAAAAAAAAAAAAAAAAAAAAAAAAAAAAAAA8JD4F5IXUlcDcmzGAAAAAElFTkSuQmCC;clipPath=inset(0% 15.33% 0% 16.67%);" vertex="1" parent="1">
          <mxGeometry x="3660" y="1565" width="289.7" height="240" as="geometry" />
        </mxCell>
        <mxCell id="Givdjkf4dNmUv_JA0HGD-2" value="" style="shape=image;verticalLabelPosition=bottom;labelBackgroundColor=default;verticalAlign=top;aspect=fixed;imageAspect=0;image=data:image/png,iVBORw0KGgoAAAANSUhEUgAAAgAAAAIACAYAAAD0eNT6AAA2CUlEQVR42uzcv2ueVRjG8e99nieJiTR929o2VhNKUyFBWgil6qBNuxXRbh3UpVjI1uLsFP+EiksnB8VCcHORghRcpIrRxV+xkCg2P0wkMaFJfPO+5xIhg4GAsUnbvMn1Wc4ZDpyHZ7kvbm4OZmZmZmZmZmZmZma2E8XFi0OYWUMqJp5YaV9qiyLl5fZUjwKiHSCTWyhoW3M4p7aMWlhHIv9VT7HIv4R0L3JRBaiJuVRmNVVzPeXW+XKpugQsY2YNK84O3sLMHrpyYWGi0pzrlTqqCFUi532CSorYK6gIKgEVVlet7oF2YA+sEoC4P9rEUQExC1oGliTmIlgG5sU/e81KaS5gTqHZQHPKaVbkPwo03bpQzjhEmD06cWrgOma2ZdrY09xVUnYq5yNkOhTqCMUhRRyJyIdQHAYObKoYA9sjALDZexeASYhpSTMRmg7SeM6aLIjfMozXy9rdrysTU0DGzLZMPH/lQ8xsw9pzsXIspbJbWd1KdIXogugEdQIHQBuqkQ4A/+tzakhTBL8qYjxJYyLGyHlMMJpXNAosYmYbFsevvIuZrdGyv2lfj8g9Ab0ongG6gWPAQf6DA8AWB4CNH/g9YAwYJRjJ0k8kRvKSRoA/MTMPAZqtKsaeXuwhyr6QToJ6UfQSHAUVsD4HAIAHdKce0D+CKdCPED+T9UOKGF6p5m8cDGw3i7OD72O2Czx2b6HpREJ9IvrI6gNOAq2sSzgA7KgAAGjNAgi4E2hYMByJr1rnm7/wYKLtFvHCWzcw24GO5lQ7A+oXcTqgFyjXqwcOALs2AKxnkYjPUb4pxU3gO8x2qHIFYdbwCnqS8ksJzgj6gU4IAAKzDWtDOg9xPgKAu8CnERrqmtz3GVDHbIcoMWtAzVHur0X15QSvCPoRHYDjrG21p0CXJS7/cnh2MsRQwEfAbcwanAOANY6m1F3k+gVlXahH9cWA0gXfHqIOBVcFV4E7ofiAMq4DU5g1oNJva9h21hycyPC6glep52cBwj19e/SOK/QOdb0d0o2sdA34FrMG4g6AbT8tzXuLavU1It6sw2k39m0ba1HEpQhdQtwKdO32wclP/GqhNQIHANs2yiJOZRiI2sobRDyOWSMJzok499zMk98Dg1++N/Cxx1L+Zu/+Q+s66ziOv7/n3Jubm5vfTdK0adI0y7o0MyVdmpu0XdPE2o6qNU01mjIX1iqxsHZbk6ajls06YeI2YWN/yCoTcdAOYcwfSB1SRP9wCMpQRAYO7MoI1rqJzKZzTc4jlDAG29r8uvec03xecP8/f1zO8znf53m+X4myBJOXEQlRMlGcuceZPeRgrar7En+04vhx9r5Tv3O448BvEZk7VQDk5lSysqDw8jupA4Y75mA1Em36jp2PzQa/MefOOt+OA39CJEISVxHJo9J0JuW8g5Pv2JjhViByk3NmuwjYYbinr6Qz3wBUdpVISPz5FCJ5MGLZ0dNfIOBJjAZElpaEw8YKr0wOYXYI+Aki16ctAIm/zvHidi84/ayDLB+gurUsQXU49xLGGfP9I+ohIGHyEcmRjhFL1vcVj5uz06Cvfvk4SzIMthG4ewNnfwFeR+TDVAGQeOoYK23x4QyOdkTko1R5LviFOffM1FXvKKAjWZJXHiKLrHO05F4f/gBa/EVuwBx2v59w5wq8oA6R96kCIDEyOFjpn2+Y+q7BA4jI7Blbp31e9Xy3DziHCKoASEysP1qUudBw9ecGD9x827Ui+WDVBmfNMYyIAoDEQfuDqfJ0kHzZYbsQkYVIYvzQzJ1ERLcAJMq6DpeU+snkOYwuRGQxGNBrsKLxn8vOqiYmqgBI5Gw6siztUt7PgA5EZLF97Y2at16caEwXIKIAINFx0Ka8qR/g2IaI5Ep/5tJbL/h1b+rAtigASDRkR194xGAIEcm1gcl/1Tz3Su2E3teiACDh6j5a3ou5RxCR/HA2nL20/Pu//96IJmaLAoCEo2OsrCpw7rT+OyJ5dyB737PfRkQBQMLgO/c0oDG+IqFwD5kX7EdE1wAln7rGK3cCjyPqYiQhsrvMs5eBCURUAZBcGxys8p1zTyEiYYfBQpx7ccp7rxoRBQDJtQsNwVeAdYhIFDQkp5NnMjX/0PVAUQCQ3Ok9uS7hzJ1ARKJk+5WLtV9HRAFAcmXy8sUBoAERiRTnuRMJz9oQUQCQnHDuMDGyalkxvW31DH/ydkb3bOTEF7t5bHgrxwe7eLC/g6GeFja3rGRZSRqRWHMUTAfBc42XKnWgW+ZM+0dyXZ3jZe04thJhnmd03lrLzvbVZG9bQU1ZEbN1/uJ/eOW1CX75x7/z2ptvIxJDnReq3z4CPImIAoAsFgu8w0S091hRKsnApmb29bRQXVbEfDQuL7v227dtHa9P/Jvnf/1XfvXqeaYDXeeT+HC4R71p+ynwN0S0BSAL1THiJzHbS8R4ZuzpbualE/3cv/uOmcV/4ZpXVvDNu7dw5thusmvV60hiJe189wQiCgCyGLzi0h5w5UTIisoMpw7tvLafX55JkQura0p55uCnOHn3FopSSURioh8v6EZEAUAWzHe7iZA7W+t4fvTTtDVWkQ+7Opr40ehnaKotRyQOArNHEVEAkIUyZ58jIj7b2cTj+7dRki4gn+qrSzh1+C7uuGU5Qkwb5y0dBjvwp/sQUQCQ+eoaq2oF1hABA5tu5eGhTfieEYJroeOpke1sUAiQOHD2LUQUAGS+HFObiYC+9fUc29tJ2FJJnycO9HKLtgMk4pyxJfCCbYgoAMh8mFmWkNVXlfDwl7rxPCN0M5WA7+zvJVOYZI5UO5c8cQCY2SFEFABkPhxsJEQJ3+Ox4TujtdjOnAkY35tFJNrcHgreW4WIAoDMbfhPuhD4BCEa6rmNtXUVRNGujU3XOg+KRFiCqcQ9iCgAyFxM/je1AUgSkoriFF/dEe35JqMDnXgW0RaJIoAzFABEAUDmxvBaCNG+nhbSqWh3qW6qLadvvQYkSqStmza3AREFAJmtwIJGQlKYTPD5LWuJgy/33Y5IlHle0I+IAoDMljkaCUlv2yqKC+PRfre1YZmuBUrEmQKAKADInDQSkh3tq4mT7TF7Xlly2qecabKVKADIbNkaQuB7xoamGuJEUwMl6hJJNQUSBQCZhcHBKh9YSQhaVlWSiUn5nxmtDVWkC6J9YFGWNueCXkQUAORG3mi+Ug74hGDN8jLixveMhupSRCLLmUYEiwKA3Jj/brqCcMR2IW2oiedzyxJhtKb/lypERAFArmc6OV3Ox3I5bwAURxXFerdKpCXfzVxuRUQBQK7HnFUSkqJUvPb/mZGJ6XPL0uHw49FcQz5IAUDyK8BVEBIvpp11vbg+uCYQLhkBrvn/7N09T1NRHMfxXxtwMHFSVxlcHfRF8ApcdHB0cHY0MQ5GEhJJjGKM4mAkKLggKbFC0IioKPJYeVAQqDQCaXkoLYWW23tMXBhM7qJyz2m/n1dwp3u+55zc/xVAACBIxDdHFJJC0ZOLtnf3BNgsaiInBRAACGKkQwrJVqEkF20VigJsZmT4fSUIAASLKlqrkKTWcnLRUsbN50ZVOS6AAEAQX36NQrKwmpVrjJEWHXxuVJ2jAggABIqGdwIw9WNdJc+XS+ZXNpXbcfPqAlXlsAACAIGMqVVIdvc8fUmm5ZKh2WUBDnBzyAYIABygiKlRiPomluSSvrGkAAcQACAAECxqIhGFqHc06cw1QCqTU8KxEwtUqQjvehAAsFy2UFR8eEEueNI/LcM8HACOIgBgnUd9kyr7dq+s6WxBXYNzAgBXEQCwTmotr46Br7JZc2xUJa8sOMburgT2EQCoVvfjCa1uFmSjz7Mrio/MCwBcRgDASoXinq48HpBX9mWTjfyurrW94+7/T2zfAccQALBWYjGj5u4x2cIr+7raOqB01s6TCQAgAFAx2t5Mq/X1lMJmjNTQMahP3xj8A6AyEACw3p3u0d8hEJayb3T96XvFhr4LACoFAQDrGSPd6hpRU+fwgX8emNsp6XLLKxZ/ABWHAIAz2t/O6NLdXq1sbOsgTCYzunCzWx9mfgoAKg0BAKeML6R1rjGmlp6ESl75v+36mzqHdPF2XMvreQFAJSIA4JydkqcHLyd0vjGmzsG5/RD4Bwv/w56Ezt54rvb+GeunEQLA36gR4KjUWl4Nzz7q3otx1Z+uU/2ZOp06cUzRaES/2Lt71SiiMI7D79nsakwU0hhUJIVWljbWXpp34C3YeQ2Wgq02ojYWShQCIQTyRYZlMyFTJJAmCSmS7P954JTTzAfzm2HmnMvqprP6+nujPn37U5+/r5/Ehd/WgQgCgDtve+/wZOrgYSwvTur1i9V6+WSl1h4/qtWVpVq6P6nxwmi42R900+G1/vrmbv36t1U//m6Z0heIJACYK/uH0/ry8/8wqnpP5wC+AQAABAAABBMAABBIAIAPBHAuEEgAAEAgAQAAgQQAAAQSAAAQSAAAQCABAACBBAAABBIAABBIAABAIAEAAIEEAAAEEgAAEEgAwEUsOoNDyRwSAACXpSCYIwIAAAIJAAAIJAAAIJAAAIBAAgAAAgkAAAgkAAAgkACAu8wv44AAAAAEAAAgAACAM+OCOjMZH73vuvpQt0a7gW2vo6tT7XbvntGsvelbfSwgkgDgvO1hMPeO2ux58xIQYrn6ASCQAACAQAIAAAIJAAAIJAAAIJAAAIBAAgAAAgkAAAgkAAAgkAAAgEACAAACCQAACCQAACCQ1QCv4O27V+P9nY2n/cK9tVbDSmrP+tY/bFXLfesXq68Ho2P27ifEqjKM4/j3OeeOd2YsS7nOXJMQUgwxUJtuo/0V1DBGiqzZiNQmNTELK5trYQ20KAhBEalpES2knGxqqS1auMhpIRGUQbtq0x8qI2judebe9wnDahCH7jh/nHPO77M6i7N47uW8PL/znve8x63VI88zWmAKBBjNGdN4ThyugcVMsjCB050p4Y0VMH4x0ypceb1ONJ9p50jy/sbPth17nMjvo1Fhiov0Kxqrf4BXMH7DOQf2E9j3jNS+Zc3gD0AgYxQALqOjp3BdRLwiCvVVRNFKd1+KsWho6Jei5XKxEQADHAPAMQcANwefoaN4ojxh9eJcVT6zazVEGmS+Cqc7FWPWRx84NEVw5s4K8DXOVxhfYDYIlc+BEVJMAYCddlt5YGXkvgGnBLYK95sgmJuBeyJ7tYiINKwF6MDowHkMd6C5Cv4p+EmITgBnSZlMBoA7niu21XL1ez3YerOBLgILE3tXLiIiU6EZWAe2Dvx14BucY0T23t/HKZCZALDmxcLCej3agrOlRliBm5mp34uISENuxngZ95fAT0H0JrN//wgYJqFSHQDW7Cm01PO2CezReo2Naf+9IiIy5QxsLfha/rz+R9wPEp8/DAyRMKlsiKv3tt/qke+pw2acVkRERCadFzFeI+SfwewVrNqXpIWDqQoAnT3Fu9xCT3Dv0iJnERGZJm24Hybkn8Z8N3CSBEh+AOj9OSpVbukybL/jJT3TFxGRq8JYApzAOE6o7wR+ZQZLdAAoldvXW6X9ILAcERGRmcDpxuJ7MNsFDDBDJTIArH6+uMwtHHDnfkQEEr43i0gKteP+AfhRopEdwBDjpW8B/Kfj2RsLneW2Q8H8S8fU/EVEZIazrYSm00T5RYyLZgD+VeopbjOGD7jbtbpVERGR5LAV1DgDsx4BTtEIBYCLu/bF4S3wBxHRvLXoWpBE8gLwMfgTwDs0IsuPADrLbQ/XYj8LpuYvIiJJl8ftbZzd/K+MzgB09s6ZQ6X1iLtvRUREJD0M7BDuAIcZUwZnADr2Lljs1ZbTjpq/iIikkoEdAnYzhswFgNv33XB3HPug3usXEZGUuxgCbAeXkakA0FlesB0PnwDzkezSei0RyQ4DPwKhi0tlIQCs7V2WK5Xb+xzvA5oQERHJjhiid7H6ckZLewDo2B43VSrn+g3bjoiISDbNweMPGc7N5R9pDgDLewuz4nnz+93YjIiISLYtJV/rZ6g5B0BaA8CF5j+7mnsfeAgREREBZwMt518AII0B4ELzb63mjgPa3EdERGQ08/0EOlMXALq7C/Hsam7A4AFERETkUjkijjLUfE2qAsB3i+ODwCZERERkLEtorb6amgBQ2ld8CuxJUkcvrouuBRGZdLuIWJ/4AFAqFzeacwARkUxQGJQJMwJvMG9uPrEBoPQXe/f2YtdZBmD8efeeSeI0aas5mZQkjUnTNIHayTSHCWnaWA1tVDAWIQ25yICtk2qEVksSI6G2ooIgFKF4JwaVaPGiHuqFiIWKbPFwoXihF1X0wtqk4kXbHGb2ekUQwZKkmb32zOxvz/P7G9aCZ73rOxxbtjngDDDAVPiOSpLmtvW8+s+jRQbAruOr3x7RfB64AUmSNDURp5horiwuAC7GpWcgVyNJkjqxiMHqS0UFwNbjKw5HcgBJklRDHiJzRxEBsPX48ncF+TSSJKmuoBFP9nwA/Od2v6DxTeB6JElSfcn7oLqrpwPgjQv/OgmMIkmSuicbp3o2AEYeX7EOOIEkSequ4L1Ee3dPBkCzGU8D85EkSd2XzVM9FwDbj6/YC/l+JMlDuaRpkvdCdSfU1+jWFb8JX0WSJE2vjI/3TAAMnR94DNiAJEmaXpEPkrl81gNg6+NL3hkRJ9H/OC+VJE2fmE8jHpr1AIjmvMeAhUj6f8ag/stnQd2XR2hODM5aAIw+uuQdkONIkqSZk6ykGtw/awHQnj94FFiEJEmaWVUenpUAuP3T664DPoEkSZp5wV6aEytmPADeNnj+CLAESZI0G5pUAwdnNADWH715fpX5KJIkafYkYzMaAIuHLuwPWIlUIhdLS+ofm2nE8IwFQEaMIUmSZl/VPjQjATB6ctVNwL1IkqQeEA+wrRXTHgDt9sRhoIkkSeoFa2jtGJ7mADgSRBxGkiT1jsj90xoA2048twtYjyRJ6h3Bh6c1AMj061+SSpMkdWQ0UK/bRGPy1ukJgCfONgg+gOYo985JBbtIHRHzUe+bHPjQtATAjot3bAWWIWmOMwYLdJE6kgWo90XeNy0BUEXejySpRBeoIyonAGXYyRsLFnY9AEj2IT+WJJXoHPUsRCWYx4ILe7oaAMMnli0FRpAkFSfJc9SR4e/fcuztagAMxrz7AVeBSlKBgsY56giWojJEdjcAMvH/vyQVKiP/Qj2LUSk2QLW2SwFwNIJ8D5KkMmX+mQ61PvatpeAugKJk7OlKAIyc+N6tbv+TpIJFvkSnsrkOleburgTAQDZ3I0kq1mC7+Xs6ZwCUpzsTAOAuJEmlehl4hU5lGADlWcVkY03tAMgwACSpYL+jjsjbUXma7d21AmDrybWrgDVIUunm7KFc8QtqyWFUnoy7awVAo8p7eBPfUkkqSMWLdKg19tz1EGtReSLrTQCqYBfSFRiDAvBZ6GHBpQsLX/slnWqe3wIEKtEtTDRXdhwAkQaAJBUr40XgdToV4S6wkg1M7u4oAEaOrb0B2IgkqUgJP6aOyHtQuSJ3dhQAA8352zz/X5LKFdH+AR1qffKn8yC3o3JljHYUAGSOIkkqVQv4E526eHY3xBAq2btpTgxNOQASLD9JKlRGnKaW/CAq3SCTA1umGACngmAbkqTyBJeC9nepI2Mf6gc7phQA2z/7w/UkS5AklSfj+8CrdKh15DubgfWoH0wtAKpq0vG/5LZ1FSqpTlNHOx9E/WJ0SgHQyNiKJKlEf7z57NLn6VDra+NBchD1i5U0J1ZPZRHgCJKkAuUXgDad+vWenQQe/9tP2s3t1xYAT1zXSPD2J0kqz0tDy85+mzoix1B/yRy+pgC4c3L4FmARkqSyBF8EJulQa/zMjYT///tOxLUFQLNiDl796IotScX72+uvLDlNHVWOefhPH0q2XFMAZM7FAJCMQZX9LCR5CrjU+eK/lxsk46gfLaMdN71lAAS5BUlSQfLnv3rmkW9Qx29+9gARG1B/araH33oCENyBJKkUExnVOJDUEXEM9a/MqwfAyGf2rfAEwAKVNamU1E0RXwH+QA2th8/c5/bvPpdx9QBo0NiEJKkMwV+Hsv15gFoH/8CTqL8FVw+AqBq3IUkqQRXER4HXqOO3ez4CePpr/1vDRHPRFQOAwAmAJJXhKeAn1NA6cGYA8nNoLgjmXdp45QDAAJCkXpfJC2vOLn6KuhbFI8BGNDdkbDIAJKlc/6jajYNAmxpaY88uJ/z6n2Nuu2wAjHxqfAnkUiRJvWqyERwA/k5dg9WXgRvR3FGx+bIBMDAw4RhIknpXRuTDwAvU1Dry7B7IQ2huCS7/C6BqxnokST0qjwFfp6bWQz8a+jd7dxslZX3ecfx7/eeeZQFlicE0WqxZoiaNOeaQk7Spph7FPGgDqQKiSZtYiAU1NtH0tCZV+3TiqaYmaqok4omRYNMCUiXGVlo95CDgDmxZHiKsImw0ia7Ig+zCsrszc199o1VkA7t7z+zMPfP7vN2zuy92z1y//3X9H4jjBYAh9eY9NPaMPSIA4Kb3n0VEknDKw/kW8M+UQui+DdCCrz4Fesa874gAENwm6da5N6T5k0LSR/8L8puZ24Pr5l/1dUiuZe6SKWDXIHWseDqvi3iDuToAIiIV5byVwQOj39X554CTUMu8fz0RokVAQOqX0XxEB8BhEiIiUhUMvpu756o5QIGE1nzvasOy9wMnI/Wu+bAOwB9cf+PoIrwbERGptKLhXwXuoVQ2nv8N3KciQph0WAcgbmxo1o5QEZGK6zXjslIW/02f+89P43rsR44c9weA2NUWEhGpsJ3u8bnAMkokN3fZ+zD+HcggAuCcSk9jBBAALCgAiIhU0MMNcfwRYD0lkpv90ASK/ES3/cnbRIzpOQUgABBzEiIiMtJ6zbgOmA7so0SW3LBoDMEeBc5A5EjNAAHAzbQBUERkZG3MmP0ecBcltPIDz2TIdD8IfAyRgU0ECACmoyEi6aP7g9LqNTOuG3Ni50eBLZTQz5dsDZy2+4e4XYLIgN7s+kcA4BoBiIiUl4M9aFH4K+AVSszdjLbz5wNfQORozN8aAPgtRESkPIwWj8NfAmspg3V37w60nXcPMA+RYzE7LABMQERESspgTezcBjxKmaw872cZNu6+D2w2IoPhvBEAdhssH4fUAQ2NRUaAA49ZHN8CtFBGLdctH0V3349xpiMyeCcBhPP+fulYIEJE6ojCYMkZux3uDB7OBKaVu/gvuWH+BLr7ngQVfxlmAOjLj25CRESG46DBYjefsZe+icD1wDbKrHXuv72fEFqAcxAZurEUMsdHhYKPNz0OKSIyWB1gK8BXZLIHVwCHGEFPf+mhT+JhMfAORIaroX98RBQ3ESMiIkfqddhq2Dpz1sZxYQ2wkwrI3X2N0Tblr3Fu0d3+klghGh+5e5PpIUDRyFjqSxdQBOsD3wO2B3yPw4sBOnD7hcO2U3eN3wEUqTB/5sIT2HDBjzD/DCKlEOKmyDyM1qe71BznVxg7DOvA6XB4gYzvttj2ULQ9IZPdkxmV932N2YNAPyJVauW0VVPoYyHGRERKxXx8hHtWDQBJuecx1rjbhkyIN0dR2ATsQyTFWmb/IMuch27EuBnQTi0pLffxUTBvcCUASZcXMP7L3J+IM4U1QCciNaTlyofOhqYFOGciUhahKXJoQKT6rcd9qQV7DNiKSA1aN+fhJiJuxZmrVb+UvQPg0KD1v1SpZ9x40CxeDHQgUqNyd3cG2p6ajXELrrdZZASYj42ChQZ3bQKUqtELPOrOgvV3/MmTOn8gtS634YJzabM7MD6MyIgJDRHuWUQqzn6N+b80ZFmgDXxSD3Kbpvw+cbgJbCoiI828IYrN3dx0aFwqZavBrQeOjxbrOJ7Ug5//7yc/RvAbiYMKv1SO+6goOEWVa6nADUIdBrf+zovZHwBFRGpYzs3YPGUqsX0F+AQilZeNMMvjDJVunZNh8k7Mbhpz3MkLgQIiNSy37vx305C9go2fuBL8NESqhduoyGMrYqq4Unb95nyfPDcDXYjUqNzK8xt5R/YiYv9TLJqGe1arGqk6RkOExXl0EZCUk/Pf7lwN7ESkBuU2fXosMIU4ngnRxbiP08eqVLls5EZRDQApk30GX8995/P3abAjtcT9HwJbVp9JkQuAi3DOxWlEJDWsGBGHvEYAUgaP5PujucCriKSct154ElHxLCx8GPdz2OTnAOO1b0lSy7wQGd6DSKm495jxN8BdiKSAL5mV4Xf3TiDPO4kyEyjGE4FmzJrBJ4F9EDgRDHRpmtSOfARhP8SIkFxbMZO5FNhBlfAtF59CCKcD78G8GTgZeCfuEzBrBMbhZBhQTEl50uMuPoQvJf8dyX/+IL/HKbH42D/faMIJQCP4aIoBAhA7mPEG7Y+SmhVTiBy69S8uyfmi4vHjrgJ6qBDfNP1dZP1s3P4QmIzxIQgnDFgFzPh/9puKhen86iCl7lyw/lQihcgj7zJdwyLD1+9m1wL3McK8dV6W0bvOJdiFOBcBZ4Jp0SYicmz5yONCF2QQGYa95j4TWMkI8vaZH8GLX8Ttc2ATtJoTERmyQpTvP64rkz2EyBA9Z8GnAttHpuj/8cmQvZTYryBmspb5IiIJmB0Im2//VI+uZJWhcPcN+f7o4yNR/H37Je/1bTPuxaMXcL8TmIyIiCQU7w+AA3tJPfWBR8iqOJudArxa5jb/Wd4+40cUwrPAXCBCRERKw9kfABxeQeTYVmTi6EJgP2Xiz8yc7Ntm/BT3jThfQBtURETKoSsABAUAOQaDJzJxdAlwiDLwHbOafNvMuwi+HviMDmCLiJRRsNciWK4OgByd8WQoRp8tW/HfNnMa/T4fmIiIiJSf2/4IwNw6Xe8ByMBaxxzMXFyO4u/bpp8B4V7gPEREZCR1BQAP6gDIgHZY3qcCBygxb58xE8I6Ff96o4WGSFWICq9GAOAKAPJ2u7wYfwpKGw69Y3Yjvd234fYVpA6ZQoBI5RXZOWlXAPCYlxB5U7+5zwB2UkL+7Mz309udA1T8RUQqpxMoBoAI+wUirzO3vwBWl7jl/1liWoGzkDqm1b9IFegECABdjX0vAnoSSMD4PrCgxLv8r8BtGTAWqXM63SlSef5rgAAA9IPGAPXOzbZkCpmvUUKtsxfeAPxQN/mJOgAiVcLtJYDAmzQGqG8H4zieVarjfrm/m2atcx74Nua3atkn6gCIVBGzlw8PAE4HUr/cvwy0l6r40z79AeBriIhItfnlYQHATR2A+mWPAgsplfYZt4N9ERERqT5efO6wAGDYTqQe55l73MJcSiR3+cKbtfIXEaliccP2wwNAsGeRuuNuXwU6S1P8H7gK+EdERKRadQG7DgsAfdliO/WkJhbvSfmq9d++7MeQ3No5/zEd7B5ERKSabed1gTe9BnQi9aKQKcbXAk5Ca//s4dMw7gcCIiJSxXzAAAD4VqQuONwJbCGhtdf8TyPBlwBNiIhIlQsDBwAzq68xQP3aFxUz/0Qp9HXfjTEZERGpfubtAwYAxxUA6oJ9E9ibfO7/yOfBvoSIiKRDHNoYOACgEUDte3HMcYfmk9DaLy9txnwBIiKSFj388pTnBgwAMbECQI0z41tAL0mZf1eP+4iIpMpmoDhgAABe1kmAGma8EgqZ+0lo7bwll+JMRURE0sNo4y0CR9qI1Cj/DnCIBFZev3wccAciIpIubhuPGgBMAaBWHSiG6F6SintvAX4bERFJlxAfvQMQuwJAjVoE7E+2+l/6AdyuRkRE0qafg2O3HDUAeGQKADUoUwzfI6nYbwIyiIhIuhitQO9RA0Br1LYdOIBUKWcYngK2kMDKaxefjjMLERFJn5jVvE3gSDHOZqRmOLaIpIL9rVb/IiJpFdYMJgCA+QakVvTlCw1Lk83+l70XuBwREUkjJ9/39KACgBs5pCY4/BR4jSSKhW8AESIikkL2LPDqoAJACJECQI0wt2UkkJvz+FiwyxARkXQyX80AAgPIfXPq88AeJO3yDdnC4yQx6tAs4DhERCSd3FYNOgAADqxH0s1YBewjEZuNiIiklRMVnhhKAABzjQFSzvDHSWDdvEeagY8jIiLpZL4ReHlIASBGGwHTzo2fkYjNAQwREUknt8cBhhQAsg35HOBIWnWd2pFpIxHX5j8RkTSLw4ohBwBgL7AdSavVQJFharly+RnA6YiISFp109T19HACADirkZTy9SRhxT9CRETSbCXQP6wA4IGnkFQKMRtIwuwCREQkzR4DGFYAiBUAUsuj4gaGqeX2yw3nbEREJK1iQvyTYQcAYIfDS0ja7AN+xXC1X/pB4ARERCStVgOdSQIAhvYBpNDzJGH2UUREJL0GcQ184FhcY4BhcyrCYQeJxB/i/9i7e9a8qzAA49c5SZO2g4s4OIhOjm76HdwcRBcHCy7iImJFwS5FERQtaqFDKH3RIrSRFkGtWokvUBvxbaivtS0tEam2jZImzZM8///tVBSjNHnez5Pr9ymuw33OfSRJpQo2LB9pOwBSzp+goqS2AyDdgSSpTJG+AM63HQDTY1+fBC6jckSaoT23I0kq1ZusQub66iC8B1CQRH2RFh1/7NAm4GYkSSUK6jzZqQAgRfoAFaMm/0arFupb3f8vScX6HDjduQAYrd5D5RitLtGqGPH0L0mlinSAVcqszingDCpCqkYXaN1NSJJKVJHiYKcDAAjHAIXYkKsGLYsbkSSV6BhwYU0B4D2A4bI8Mt6gVRGbkSSV6ABAxwOgsZEPgSYaeFXdbNK6MSRJpVmgOXqkKwEA/BEwhYZbNgAkqTxxGJjrVgAAcQiGcHeu/lZnnwBKUmly3gvQtQColzYcdgwgSdJAmeHsLVNdDQDgYoKPkCRJgyHYA1TdDgCAQ0iSpEEQ1Hk/QNcDYCktOwaQJGkwfAr83JMAAH4HjiJJkvosdtOiTAtyyhNIkqR+usTC5oM9DYCN4ze8A/ELkiSpPxJ7gMWeBgDQTCntQZIk9UMQMUEbMi1q1qMTQIUkSeq194Gf+hIAwHnwgyBJknou2EWbMm0I6peRJEm9dI6rm97uawAARyP4CkmS1BvBDqDZ7wCAlJ5HkiT1wixXN+0G6HsA3HZ6aRI4RbH8gVCSVIq0C7gyEAEAVER6EUmS1E0NRpZ30iGZDri8MLbXxUCSJHXV68CvAxUAQCOlvA1JktQNFXnkBToo0yHT49/s80XACl5hkCR1QOwDfhzIAADqPJIfR5IkddIyuX4WYFADAGAqwbtIkqTOCCaAM4MeAFQ5nvCPAEmSOmIR4jmAgQ8A4GQEO5AkSe1JaScwU0oAMLuw8WngeyRJUqsukJeeASgmAIBGRH4IqJEkSWuXeBL4s7QAADgeiV1IkqS1+pI7T+wHKDEAGKtGngLOIUmSVqum5hGgLjYAgLmc8v3AEpIkaRViApgGKDkAAKYjsRW5vk+SdD1nWR7dCjAMAQDwCqTXkCRJ/6cmpS3A3DAFAIvNzQ8D3yJJklZK6SXgY4ChCgBgvkr1vcAskiTpn75jfnwb1wxZAAD8kFO+G2IeSZIEcIVU3Qcscs0QBgDAdMA9QANJkta3IGLLihH5kAYAwDFIW9wUKEla57YDk/zbEAcAwBtEPOqbOEnSupTSW9x1YjusNOwBAPAqwYNAE0mS1o/PWEoPADX/ZR0EAMD+iL/YuX+Wm/84juOPz/foV+7ATxZ/ismVLJKSCCVkEIXFxi1QBopiUG4BWSwYTJKUP5t/g4QyUP5twoUrLte5nPOxGCxCwvme83rU+z48h1fvZgsmRUREDL+7up2NmPA9IxIAcL4pzWq8FhERMbzu0VuLcXzfCAUA3Oo3ZZXqiYiIiOHzQKe7Bq/9yIgFADwoMyeXlOqsiIiI4XHZVGclXvkZIxgA8B7bKbuyC4iIiParJzTdDRj3s0Y0AABONX0r8FhERET79NSyD7sx7VeMeADAnU63t1hxKJ8DIyKiRZ7qN+tw1IAa9ACASRzslN5YUS+KiIgYXBXHdZvFuGaAtSEAAB5jQyl1q+KZiIiIwfIU67AHEwZcmwIA4FzvzauFlF14KCIi4t+awAHN1CJc0RJtDACYxqnbM++PVXUzboqIiPi7JijHTFuAw/ioRdoaAAB9nMdypVmjOo1PIiIi/pznqv0+13nYi5daqO0B8K2r2Nmd6syu7MYlTIuIiPht9QPOqDZZen0+juCNFhumAAB4ixNY/1+ZmlXUHTiZ4WBERPyiF0o9qdim6f6PHbiAvvYzg64hNo4zX09Pf06nlGWlb1lVxrAAczFDRESMsPJOrQ+pd9TmltrcwCNf2Lub06CCKIDC58UYXCiY4E7RgBZgA9qBhdiAS7EfK7AK10JAjK5NRAlKTJ4FuJAs8mPu9xUwcJnNYZhhrrHNOmiQ/Wq/eltVdXL49ebWzvajk3Xj8VJPOu3B6dLOsqzbS+t21boud6uls1o6f2t/ufO9k+DfflQfunBLZ7N2ZS3nNvOVH/0MM1/2Xv+qjqrD6metR7V8a+2g1s/dWD51/Ptj9aVhNv+jFwvn5bjaq/aqd8EUS++r5wEjXcc7AACAAAAABAAAIAAAYCIBAAADCQAAGEgAAMBAAgAABhIAADCQAACAgQQAAAwkAABgIAEAAAMJAAAYaDNgprVn1Xrx37SvF/vd/3oV1l67ZMfVVuAEAABmEwAAMJAAAICBBAAADCQAAGAgAQAAAwkAABhIAADAQAIAAAYSAAAwkAAAgIEEAAAMJAAAYCABAAADCQAAGEgAAMBAAgAABhIAADCQAACAgQQAAAwkAABgIAEAAAMJAAAYSAAAwEACAAAGEgAAMJAAAICBBAAADCQAAGAgAQDMtHGrbj+tey/q/st6+Kp2X9fum/rD3v27NhnEARh/LnnbmDRt2tTGYmqlP7AiVEtRdChFFNFO4qBFECdx6eYg4tjuTg4uzv4Xbo6CuAsKolAFkYpWxcShcxsL2vcuPh843vGdvsczHHfj96C5AvuvQP8pKFaRuk2GJP0veuoweBZqC1CZgZDxZ9rw7RV8fgafnsKPd0ipMwAkdb/yNDSWobYAocDuBShPb63Rm7DxHNafwMZLpFQZAJK6V08dRm/B0Dkg8HcE6D+5tb68gLcPYfMNUmo8AyCpOw2dhyOPt74E/onqHMw8gsZVICClxACQ1F1CBmN34NBdKFb25n8Hb8PkGhQrSKkwACR1j0IZJtagfpE9N3Aaph9ATx0pBQaApO5Q6IWJVajOk5vy1FYEZENIsTMAJKWPAOP3oW+W3JWaMLkKhRJSzAwASek7cB0GzhCNylForiDFzACQlLbKMWjcIDrDSzC4iBQrA0BSukIRmisQIt3KmiteI6xoRTo1kkRn9SUoTxGtnjo0lpF2zQCQpG2EDEauEb2Ry5DVkHbFAJCkbdQWobdB9AplGF5C2hUDQHuu0GojpaB+gWTUL5Ez51oGgDpoFX4ixS6rQXWOZJTGoDxJbtp8RzIAtLOWG4XiVz2R3uM71XlyE9hEMgC0oxC+IsWub5bkVI+THwNABoA6an9Eil1pnOTsO0xu2sG5lgGgDtphHSl2pTGS0zsKISMf7Q9IBoB2VniPFLtsgOSEIhT7yIkBIANAHbRar4FfSLEKRX6zdz8tUUVhAMafM2WL6Hv07aJNRG2CFtLKwCBIWhlEZdEiJCgshAgiU9NyYw5lDGqlM+RMzowz97Rt579pzrnw/D7BXT738L7nEEYopcpZkghUkQwAHaALrCNlu45esun/f4VAGmEVyQDQgSIrSLmKPYglva6i3yKJWBgAMgB0GGEOKWe935ROLFIFQJ/TZ5aRDAAd6FR8j5SzTo3S6W5A7DF8YQVoIRkAOlB75K2DgMpap4RjKsm+2aCXAaDDqwPzSAMXGIhWCU+0m0skEeIrJANAhxbiS6RcNT+W74G73XkSiOwzg2QA6NBifIqUq14DmkuURqcGe1WGLoZFYBPJANARzAFrSLmql+iQaucFEBm6SpxCMgB0ZCE8QspVYxb2t8le0YbtadLoP0YyAHRkoX8XKJByFPfhZwka9dcz6DUYusA7wAuAZADoWKoEB4iUse1paGe8Etirw9Z9kohMIBkAOr54EylXsQe1W/luBNTuQL9JAg2Kcw+QDACdwHMiC0i5ai3Dj4dkp/4a6jMkEbkN/EEyAHQiIYwi5WxrEnY/kI29KnwfI5E2ZyrjSAaATuz81BPgDVKuYgHfrkPrM8l1N6B6BYo2iUwAW0gGgAYgcipecCNAWSs68PUatD6RTHsdvlyC/R2SiOwyUvHETgaABmqBwD2knPWbUL0CjVmGrrkIqxehu0UyFW749y8DQIMXT1/1WVFlL3ZhfRRq41B0+O9iHzYnYe0y9HdJJ6zSiGNIBoD+tnf/oXbXdRzHH59z792WP5rOqJg/JrVZU7cpaWipiSUq5agMwYR+SLESxEKGK0S0qJxYlGSBRUaWVNYfMoTKpWZmjZqmm+1nzs3U/bjmdt3d7o9zz6c/EoLS2tp2d865rwecP85/55/D98nn8/m+PwfAc0q9VkQneOFe1lxxYE/i71rDuqvZfCe15eCqn8aQiARAHCC34R4RnWC0n003s/4aBpah2i92r2PjF1l7FbvWOOiK28jQrkgAxIFW+j6B50R0isGVbLie1Vew+U6GNqDu/Y1+2+5m7adYeyXbH0J10FUr7R5aKGIv9bbtBK1oZ/1q+bBS709ERkcZfo4tP/znp3cqh57E5GOZfDQ9h9PzGjRo7WZsJ8PPMvw3Bp9ktF8bGqRxKXaLSADEOPkNvozrRHSi5g52PNK+Y4T3RHUVVonIFkCMq7f87Hr8SESMv+r7uENEAiCMv2rntI+rZamIGE+/NuWoBSISAHEQjeqddAmeEBHj4Y8mt96PEREJgDjIBoyVi9HGF7NHdIW1jL4XO0UkAKJNbNJqnaNYLyIOgPqMnt4LsU1EAiDazEYjfWdhhYjYf4qnjPWciw0iEgDRprYYnfwuLBMR+8Nyjd4z8ZSIBEC0uRdNalxAuV9E7IP6oJHJ52GriARAdIgdNvdfgFtFxN4rfmxHvQgDIhIA0WGauJp6eUaVRuyxpmIRLsvtfpEAiE53l1rPymuC0dFjd8fHVo16ARaLSABEl3hUX+t0LBETWBGv6iGjY/OQszNBAiC6zFbMV8tHM8gkAlAMKXWRddPOw2YRSABEt/oBY3MUvxUTTLYA/s3jWq0zsBhjIgAkAKJ7Pe35F85T67UYFBNEtgAAw/i87WOn4XER/yEBEN2tiZs1m7PxcxETQfVLYz2n4CtoinglCYCYIJ7Bh5T6btUqEd1pHfVSXIjVIv6bBEBMMPfr230q5XOK7aILTcgzADuoC02adjLuFrFHEgAx8QzjJiPDb1LKYuwS0ZkGcYvaNwu35P7+2CsJgJjAXsQivT3HvxwCw6ILTIhDgMO43VjPLCzM9b3RrhIA0e62YZGecqLq2xkpHG1sEF832jweC/C8iDaWAIhO8RSu1DN6nOpG9ItoB8Vm3GikzsBnM8wnOkUCIDpNP26wqzlDqVfhryIOjmVqvcyLzWNxA14Q0UF6RXSmXfim2fO+ZfWf36OWBbgYfSIOmPqSWn6i0fgulonoYFkBiE7Xwq9widp7HBZRNojYv5ZTFuhrTscn8/CPbpAAiG6yGYvNnjuTxvmKO7BDxP9nvVK+pPS8Fafh9lxiFd0kARDdqIWluELf0BuU1nzcmTsHYg88g1upZ5t33wm4DmtEdKEEQHS7YSzBR/QNT1fq5fgpBsQrmJCTAJ+k3KSUM8y7bwauxsPt+mMjcggwYu8N4C7cZXZfj780z1S8j/pBzBLjoKA6yMbwB8oSjXpP5vLHRJUVgJioxvAwFuEEpc5VyjXUX2T8cNetAFSsVMs3FPNNmXIkzsLiPPxjIksARAAr8DVcZOv2qRpOUy3C0lzZ2oGK5yl3KxboMQNz8BkswUsiIlsAEa+gieVYjsVMmqaOvFNxDs7G2/LfabstgHWUR5T6Oz3lAawXEVkBiNhHf8cSLMQZmruPUJyPLygezKth425E9Qi+qtQPaDTfiBPwMXwnD/+IrABEHCiDWIql4MRJPVaPnKjldJyOt2NOphLuF03qKspjeFQty00d+hOGRMQ+6c2dKhH7bAwrsALfA4cMTDF02Klq4xTVXMxRnKyaKl7NbsVKLY/hUepjpg4/kYd9RFYAIjrJEH7/8geARnOGsd6TNcoc6kmqWXgzXmdCqLCNuoqyGqupq6hrzH3HRrREBAmAiK6zERtxLwAY7TlCb2umYiatmZSZOAbTcSwO0zm2Y5Nio+ppxSbKJq26yaTRdbk1L6I9lLp6vohoe4cbHTtGo0xXHa2W12s4kjoNR2rVaTT+9Z1JOJS6L+/pj2AQA6oh7MQObKH20+hXW9s06hatuk2jt9+U1rOZshjRGUp94FwR0bV6HXXo4SY3egy3Xut/qa0RpTFo9SEDGBMREREREREREREREREREREREREREREREREREREREePtHysca/2Y7DR+AAAAAElFTkSuQmCC;" vertex="1" parent="1">
          <mxGeometry x="4280" y="1580" width="210" height="210" as="geometry" />
        </mxCell>
        <mxCell id="Givdjkf4dNmUv_JA0HGD-3" value="" style="shape=cross;whiteSpace=wrap;html=1;fillColor=#000000;strokeColor=#6c8ebf;rotation=-45;" vertex="1" parent="1">
          <mxGeometry x="4020" y="1611.3799999999999" width="146.92" height="147.24" as="geometry" />
        </mxCell>
      </root>
    </mxGraphModel>
  </diagram>
</mxfile>
